<!DOCTYPE html>
<svg xmlns="http://www.w3.org/2000/svg" viewBox="-100 -100 200 200">
  <line x1="-100" y1="0" x2="100" y2="0"
    stroke="#000000" stroke-width="0.4"/>
  <line x1="0" y1="-100" x2="0" y2="100"
    stroke="#000000" stroke-width="0.4"/>
  <path d="M99 1.5 100 0 99 -1.5 "
    stroke="#000000" stroke-width="0.4" fill="none"/>
  <path d="M1.5 -99 0 -100 -1.5 -99 "
    stroke="#000000" stroke-width="0.4" fill="none"/>
  <path d="M-100 287280 -99.6 283021 -99.2 278812 -98.8 274653 -98.4 270543 -98 266482 -97.6 262469 -97.2 258504 
    -96.8 254587 -96.4 250717 -96 246893 -95.6 243116 -95.2 239384 -94.8 235698 -94.4 232057 -94 228460 
    -93.6 224908 -93.2 221400 -92.8 217934 -92.4 214512 -92 211133 -91.6 207795 -91.2 204500 -90.8 201246 
    -90.4 198032 -90 194860 -89.6 191728 -89.2 188635 -88.8 185582 -88.4 182569 -88 179594 -87.6 176657 
    -87.2 173759 -86.8 170898 -86.4 168074 -86 165287 -85.6 162537 -85.2 159823 -84.8 157145 -84.4 154503 
    -84 151895 -83.6 149323 -83.2 146785 -82.8 144281 -82.4 141810 -82 139374 -81.6 136970 -81.2 134599 
    -80.8 132261 -80.4 129955 -80 127680 -79.6 125437 -79.2 123225 -78.8 121044 -78.4 118893 -78 116773 
    -77.6 114682 -77.2 112622 -76.8 110590 -76.4 108587 -76 106613 -75.6 104667 -75.2 102749 -74.8 100859 
    -74.4 98996.8 -74 97161.4 -73.6 95352.8 -73.2 93570.7 -72.8 91815 -72.4 90085.2 -72 88381.1 -71.6 86702.5 
    -71.2 85048.9 -70.8 83420.3 -70.4 81816.2 -70 80236.4 -69.6 78680.7 -69.2 77148.7 -68.8 75640.2 -68.4 74155 
    -68 72692.7 -67.6 71253.1 -67.2 69836 -66.8 68441 -66.4 67068 -66 65716.6 -65.6 64386.7 -65.2 63077.9 
    -64.8 61790.1 -64.4 60522.9 -64 59276.2 -63.6 58049.7 -63.2 56843.1 -62.8 55656.2 -62.4 54488.7 -62 53340.6 
    -61.6 52211.4 -61.2 51100.9 -60.8 50009.1 -60.4 48935.5 -60 47880 -59.6 46842.4 -59.2 45822.4 -58.8 44819.8 
    -58.4 43834.4 -58 42866 -57.6 41914.4 -57.2 40979.3 -56.8 40060.6 -56.4 39158 -56 38271.3 -55.6 37400.3 
    -55.2 36544.9 -54.8 35704.7 -54.4 34879.7 -54 34069.6 -53.6 33274.1 -53.2 32493.2 -52.8 31726.6 -52.4 30974.2 
    -52 30235.6 -51.6 29510.9 -51.2 28799.6 -50.8 28101.8 -50.4 27417.1 -50 26745.5 -49.6 26086.6 -49.2 25440.5 
    -48.8 24806.7 -48.4 24185.3 -48 23576 -47.6 22978.6 -47.2 22393.1 -46.8 21819.1 -46.4 21256.5 -46 20705.2 
    -45.6 20165.1 -45.2 19635.8 -44.8 19117.4 -44.4 18609.5 -44 18112.2 -43.6 17625.1 -43.2 17148.2 -42.8 16681.3 
    -42.4 16224.2 -42 15776.8 -41.6 15338.9 -41.2 14910.5 -40.8 14491.3 -40.4 14081.2 -40 13680 -39.6 13287.7 
    -39.2 12904 -38.8 12528.9 -38.4 12162.2 -38 11803.7 -37.6 11453.4 -37.2 11111 -36.8 10776.5 -36.4 10449.8 
    -36 10130.6 -35.6 9818.97 -35.2 9514.65 -34.8 9217.54 -34.4 8927.54 -34 8644.52 -33.6 8368.35 -33.2 8098.91 
    -32.8 7836.1 -32.4 7579.78 -32 7329.85 -31.6 7086.19 -31.2 6848.69 -30.8 6617.24 -30.4 6391.72 -30 6172.03 
    -29.6 5958.06 -29.2 5749.7 -28.8 5546.85 -28.4 5349.4 -28 5157.25 -27.6 4970.3 -27.2 4788.45 -26.8 4611.6 
    -26.4 4439.65 -26 4272.51 -25.6 4110.08 -25.2 3952.26 -24.8 3798.97 -24.4 3650.1 -24 3505.58 -23.6 3365.31 
    -23.2 3229.2 -22.8 3097.17 -22.4 2969.13 -22 2844.99 -21.6 2724.68 -21.2 2608.1 -20.8 2495.18 -20.4 2385.84 
    -20 2280 -19.6 2177.58 -19.2 2078.5 -18.8 1982.68 -18.4 1890.06 -18 1800.56 -17.6 1714.11 -17.2 1630.63 
    -16.8 1550.05 -16.4 1472.31 -16 1397.33 -15.6 1325.05 -15.2 1255.4 -14.8 1188.32 -14.4 1123.75 -14 1061.61 
    -13.6 1001.84 -13.2 944.396 -12.8 889.203 -12.4 836.204 -12 785.341 -11.6 736.558 -11.2 689.797 -10.8 645.002 
    -10.4 602.119 -10 561.094 -9.6 521.874 -9.2 484.407 -8.8 448.642 -8.4 414.529 -8 382.019 -7.6 351.062 
    -7.2 321.612 -6.8 293.623 -6.4 267.047 -6 241.84 -5.6 217.959 -5.2 195.359 -4.8 173.998 -4.4 153.836 
    -4 134.83 -3.6 116.941 -3.2 100.13 -2.8 84.3588 -2.4 69.589 -2 55.7842 -1.6 42.9083 -1.2 30.9261 
    -0.8 19.803 -0.4 9.50535 -3.60684e-13 8.22359e-12 0.4 -8.74529 0.8 -16.7621 1.2 -24.0812 1.6 -30.7328 2 -36.7462 
    2.4 -42.1502 2.8 -46.9728 3.2 -51.2413 3.6 -54.9824 4 -58.2221 4.4 -60.9856 4.8 -63.2977 5.2 -65.1824 
    5.6 -66.6629 6 -67.7622 6.4 -68.5022 6.8 -68.9044 7.2 -68.9899 7.6 -68.7787 8 -68.2906 8.4 -67.5446 
    8.8 -66.5593 9.2 -65.3526 9.6 -63.9418 10 -62.3438 10.4 -60.5746 10.8 -58.6502 11.2 -56.5855 11.6 -54.3952 
    12 -52.0934 12.4 -49.6937 12.8 -47.2092 13.2 -44.6523 13.6 -42.0351 14 -39.3693 14.4 -36.6659 14.8 -33.9356 
    15.2 -31.1884 15.6 -28.4341 16 -25.6819 16.4 -22.9406 16.8 -20.2186 17.2 -17.5238 17.6 -14.8637 18 -12.2453 
    18.4 -9.67541 18.8 -7.16023 19.2 -4.70567 19.6 -2.31722 20 -1.91847e-12 20.4 2.24126 20.8 4.40216 21.2 6.4787 
    21.6 8.46719 22 10.3643 22.4 12.1671 22.8 13.8728 23.2 15.4791 23.6 16.9841 24 18.3859 24.4 19.6832 
    24.8 20.8748 25.2 21.9598 25.6 22.9378 26 23.8083 26.4 24.5714 26.8 25.2273 27.2 25.7764 27.6 26.2195 
    28 26.5574 28.4 26.7914 28.8 26.9229 29.2 26.9533 29.6 26.8846 30 26.7188 30.4 26.4579 30.8 26.1044 
    31.2 25.6609 31.6 25.13 32 24.5146 32.4 23.8177 32.8 23.0426 33.2 22.1924 33.6 21.2708 34 20.2812 
    34.4 19.2273 34.8 18.1129 35.2 16.9418 35.6 15.7182 36 14.4461 36.4 13.1296 36.8 11.7729 37.2 10.3803 
    37.6 8.95631 38 7.50519 38.4 6.03142 38.8 4.53949 39.2 3.03392 39.6 1.51924 40 9.9476e-13 40.4 -1.51924 
    40.8 -3.03392 41.2 -4.53949 41.6 -6.03142 42 -7.50519 42.4 -8.95631 42.8 -10.3803 43.2 -11.7729 43.6 -13.1296 
    44 -14.4461 44.4 -15.7182 44.8 -16.9418 45.2 -18.1129 45.6 -19.2273 46 -20.2812 46.4 -21.2708 46.8 -22.1924 
    47.2 -23.0426 47.6 -23.8177 48 -24.5146 48.4 -25.13 48.8 -25.6609 49.2 -26.1044 49.6 -26.4579 50 -26.7187 
    50.4 -26.8846 50.8 -26.9533 51.2 -26.9229 51.6 -26.7914 52 -26.5574 52.4 -26.2195 52.8 -25.7764 53.2 -25.2273 
    53.6 -24.5714 54 -23.8083 54.4 -22.9378 54.8 -21.9598 55.2 -20.8748 55.6 -19.6832 56 -18.3859 56.4 -16.9841 
    56.8 -15.4791 57.2 -13.8728 57.6 -12.1671 58 -10.3643 58.4 -8.46719 58.8 -6.4787 59.2 -4.40216 59.6 -2.24126 
    60 -1.7053e-12 60.4 2.31722 60.8 4.70567 61.2 7.16023 61.6 9.67541 62 12.2453 62.4 14.8637 62.8 17.5238 
    63.2 20.2186 63.6 22.9406 64 25.6819 64.4 28.4341 64.8 31.1884 65.2 33.9356 65.6 36.6659 66 39.3693 
    66.4 42.0351 66.8 44.6523 67.2 47.2092 67.6 49.6937 68 52.0934 68.4 54.3952 68.8 56.5855 69.2 58.6502 
    69.6 60.5746 70 62.3437 70.4 63.9418 70.8 65.3526 71.2 66.5593 71.6 67.5446 72 68.2906 72.4 68.7787 
    72.8 68.9899 73.2 68.9044 73.6 68.5022 74 67.7622 74.4 66.6629 74.8 65.1824 75.2 63.2977 75.6 60.9856 
    76 58.2221 76.4 54.9824 76.8 51.2413 77.2 46.9728 77.6 42.1502 78 36.7462 78.4 30.7328 78.8 24.0812 
    79.2 16.7621 79.6 8.74529 80 7.95808e-12 80.4 -9.50535 80.8 -19.803 81.2 -30.9261 81.6 -42.9083 82 -55.7842 
    82.4 -69.589 82.8 -84.3588 83.2 -100.13 83.6 -116.941 84 -134.83 84.4 -153.836 84.8 -173.998 85.2 -195.359 
    85.6 -217.959 86 -241.84 86.4 -267.047 86.8 -293.623 87.2 -321.612 87.6 -351.062 88 -382.019 88.4 -414.529 
    88.8 -448.642 89.2 -484.407 89.6 -521.874 90 -561.094 90.4 -602.119 90.8 -645.002 91.2 -689.797 91.6 -736.558 
    92 -785.341 92.4 -836.204 92.8 -889.203 93.2 -944.396 93.6 -1001.84 94 -1061.61 94.4 -1123.75 94.8 -1188.32 
    95.2 -1255.4 95.6 -1325.05 96 -1397.33 96.4 -1472.31 96.8 -1550.05 97.2 -1630.63 97.6 -1714.11 98 -1800.56 
    98.4 -1890.06 98.8 -1982.68 99.2 -2078.5 99.6 -2177.58 100 -2280 "
    stroke="#fa8072" stroke-width="0.5" fill="none"/>
  <path d="M-100 302400 -99.6 297917 -99.2 293487 -98.8 289109 -98.4 284782 -98 280507 -97.6 276283 -97.2 272110 
    -96.8 267986 -96.4 263912 -96 259888 -95.6 255911 -95.2 251983 -94.8 248103 -94.4 244271 -94 240485 
    -93.6 236745 -93.2 233052 -92.8 229405 -92.4 225802 -92 222245 -91.6 218732 -91.2 215263 -90.8 211837 
    -90.4 208455 -90 205116 -89.6 201819 -89.2 198563 -88.8 195350 -88.4 192178 -88 189046 -87.6 185955 
    -87.2 182904 -86.8 179892 -86.4 176920 -86 173987 -85.6 171092 -85.2 168235 -84.8 165416 -84.4 162634 
    -84 159890 -83.6 157182 -83.2 154510 -82.8 151874 -82.4 149274 -82 146709 -81.6 144179 -81.2 141683 
    -80.8 139222 -80.4 136794 -80 134400 -79.6 132039 -79.2 129711 -78.8 127415 -78.4 125151 -78 122919 
    -77.6 120718 -77.2 118549 -76.8 116410 -76.4 114302 -76 112224 -75.6 110176 -75.2 108157 -74.8 106168 
    -74.4 104207 -74 102275 -73.6 100371 -73.2 98495.5 -72.8 96647.3 -72.4 94826.5 -72 93032.8 -71.6 91265.7 
    -71.2 89525.2 -70.8 87810.8 -70.4 86122.3 -70 84459.4 -69.6 82821.8 -69.2 81209.1 -68.8 79621.3 -68.4 78057.9 
    -68 76518.6 -67.6 75003.3 -67.2 73511.5 -66.8 72043.2 -66.4 70597.9 -66 69175.4 -65.6 67775.5 -65.2 66397.8 
    -64.8 65042.2 -64.4 63708.4 -64 62396 -63.6 61104.9 -63.2 59834.8 -62.8 58585.4 -62.4 57356.6 -62 56148 
    -61.6 54959.3 -61.2 53790.5 -60.8 52641.1 -60.4 51511 -60 50400 -59.6 49307.8 -59.2 48234.1 -58.8 47178.7 
    -58.4 46141.5 -58 45122.1 -57.6 44120.4 -57.2 43136.1 -56.8 42169.1 -56.4 41218.9 -56 40285.6 -55.6 39368.8 
    -55.2 38468.3 -54.8 37583.9 -54.4 36715.5 -54 35862.7 -53.6 35025.4 -53.2 34203.4 -52.8 33396.5 -52.4 32604.4 
    -52 31827 -51.6 31064.1 -51.2 30315.4 -50.8 29580.8 -50.4 28860.1 -50 28153.1 -49.6 27459.6 -49.2 26779.4 
    -48.8 26112.4 -48.4 25458.2 -48 24816.8 -47.6 24188 -47.2 23571.6 -46.8 22967.4 -46.4 22375.3 -46 21795 
    -45.6 21226.4 -45.2 20669.3 -44.8 20123.6 -44.4 19589 -44 19065.4 -43.6 18552.7 -43.2 18050.7 -42.8 17559.2 
    -42.4 17078.1 -42 16607.1 -41.6 16146.2 -41.2 15695.2 -40.8 15254 -40.4 14822.3 -40 14400 -39.6 13987 
    -39.2 13583.2 -38.8 13188.3 -38.4 12802.3 -38 12424.9 -37.6 12056.2 -37.2 11695.8 -36.8 11343.7 -36.4 10999.8 
    -36 10663.8 -35.6 10335.8 -35.2 10015.4 -34.8 9702.68 -34.4 9397.41 -34 9099.49 -33.6 8808.79 -33.2 8525.17 
    -32.8 8248.52 -32.4 7978.72 -32 7715.64 -31.6 7459.15 -31.2 7209.15 -30.8 6965.52 -30.4 6728.13 -30 6496.88 
    -29.6 6271.64 -29.2 6052.32 -28.8 5838.79 -28.4 5630.95 -28 5428.68 -27.6 5231.9 -27.2 5040.47 -26.8 4854.32 
    -26.4 4673.32 -26 4497.38 -25.6 4326.4 -25.2 4160.27 -24.8 3998.91 -24.4 3842.21 -24 3690.09 -23.6 3542.43 
    -23.2 3399.16 -22.8 3260.18 -22.4 3125.4 -22 2994.73 -21.6 2868.08 -21.2 2745.37 -20.8 2626.51 -20.4 2511.41 
    -20 2400 -19.6 2292.19 -19.2 2187.89 -18.8 2087.04 -18.4 1989.54 -18 1895.33 -17.6 1804.32 -17.2 1716.45 
    -16.8 1631.63 -16.4 1549.8 -16 1470.87 -15.6 1394.79 -15.2 1321.48 -14.8 1250.87 -14.4 1182.89 -14 1117.48 
    -13.6 1054.57 -13.2 994.101 -12.8 936.003 -12.4 880.215 -12 826.675 -11.6 775.324 -11.2 726.102 -10.8 678.949 
    -10.4 633.809 -10 590.625 -9.6 549.341 -9.2 509.902 -8.8 472.255 -8.4 436.346 -8 402.125 -7.6 369.539 
    -7.2 338.539 -6.8 309.076 -6.4 281.102 -6 254.569 -5.6 229.43 -5.2 205.641 -4.8 183.156 -4.4 161.932 
    -4 141.926 -3.6 123.096 -3.2 105.4 -2.8 88.7987 -2.4 73.2516 -2 58.7202 -1.6 45.1667 -1.2 32.5538 
    -0.8 20.8453 -0.4 10.0056 -3.60684e-13 -1.18536e-11 0.4 -9.20557 0.8 -17.6443 1.2 -25.3486 1.6 -32.3503 2 -38.6802 
    2.4 -44.3686 2.8 -49.445 3.2 -53.9382 3.6 -57.8762 4 -61.2864 4.4 -64.1954 4.8 -66.6292 5.2 -68.613 
    5.6 -70.1715 6 -71.3286 6.4 -72.1076 6.8 -72.531 7.2 -72.6209 7.6 -72.3986 8 -71.8848 8.4 -71.0996 
    8.8 -70.0624 9.2 -68.7922 9.6 -67.3072 10 -65.625 10.4 -63.7628 10.8 -61.737 11.2 -59.5637 11.6 -57.2581 
    12 -54.8352 12.4 -52.3092 12.8 -49.6939 13.2 -47.0024 13.6 -44.2475 14 -41.4414 14.4 -38.5957 14.8 -35.7217 
    15.2 -32.8299 15.6 -29.9306 16 -27.0336 16.4 -24.148 16.8 -21.2828 17.2 -18.4461 17.6 -15.646 18 -12.8898 
    18.4 -10.1846 18.8 -7.53709 19.2 -4.95334 19.6 -2.43918 20 -3.55609e-11 20.4 2.35922 20.8 4.63385 21.2 6.81968 
    21.6 8.91283 22 10.9098 22.4 12.8074 22.8 14.6029 23.2 16.2938 23.6 17.878 24 19.3536 24.4 20.7191 
    24.8 21.9735 25.2 23.1156 25.6 24.145 26 25.0614 26.4 25.8647 26.8 26.5551 27.2 27.1331 27.6 27.5995 
    28 27.9552 28.4 28.2015 28.8 28.3399 29.2 28.3719 29.6 28.2996 30 28.125 30.4 27.8504 30.8 27.4783 
    31.2 27.0114 31.6 26.4526 32 25.8048 32.4 25.0713 32.8 24.2553 33.2 23.3605 33.6 22.3903 34 21.3486 
    34.4 20.2392 34.8 19.0662 35.2 17.8335 35.6 16.5455 36 15.2064 36.4 13.8206 36.8 12.3925 37.2 10.9267 
    37.6 9.4277 38 7.9002 38.4 6.34887 38.8 4.77842 39.2 3.1936 39.6 1.5992 40 1.65951e-10 40.4 -1.5992 
    40.8 -3.1936 41.2 -4.77842 41.6 -6.34887 42 -7.9002 42.4 -9.4277 42.8 -10.9267 43.2 -12.3925 43.6 -13.8206 
    44 -15.2064 44.4 -16.5455 44.8 -17.8335 45.2 -19.0662 45.6 -20.2392 46 -21.3486 46.4 -22.3903 46.8 -23.3605 
    47.2 -24.2553 47.6 -25.0713 48 -25.8048 48.4 -26.4526 48.8 -27.0114 49.2 -27.4783 49.6 -27.8504 50 -28.125 
    50.4 -28.2996 50.8 -28.3719 51.2 -28.3399 51.6 -28.2015 52 -27.9552 52.4 -27.5995 52.8 -27.1331 53.2 -26.5551 
    53.6 -25.8647 54 -25.0614 54.4 -24.145 54.8 -23.1156 55.2 -21.9735 55.6 -20.7191 56 -19.3536 56.4 -17.878 
    56.8 -16.2938 57.2 -14.6029 57.6 -12.8074 58 -10.9098 58.4 -8.91283 58.8 -6.81968 59.2 -4.63385 59.6 -2.35922 
    60 -3.79316e-10 60.4 2.43918 60.8 4.95334 61.2 7.53709 61.6 10.1846 62 12.8898 62.4 15.646 62.8 18.4461 
    63.2 21.2828 63.6 24.148 64 27.0336 64.4 29.9306 64.8 32.8299 65.2 35.7217 65.6 38.5957 66 41.4414 
    66.4 44.2475 66.8 47.0024 67.2 49.6939 67.6 52.3092 68 54.8352 68.4 57.2581 68.8 59.5637 69.2 61.737 
    69.6 63.7628 70 65.625 70.4 67.3072 70.8 68.7922 71.2 70.0624 71.6 71.0996 72 71.8848 72.4 72.3986 
    72.8 72.6209 73.2 72.531 73.6 72.1076 74 71.3286 74.4 70.1715 74.8 68.613 75.2 66.6292 75.6 64.1954 
    76 61.2864 76.4 57.8762 76.8 53.9382 77.2 49.445 77.6 44.3686 78 38.6802 78.4 32.3503 78.8 25.3486 
    79.2 17.6443 79.6 9.20557 80 -9.48289e-11 80.4 -10.0056 80.8 -20.8453 81.2 -32.5538 81.6 -45.1667 82 -58.7202 
    82.4 -73.2516 82.8 -88.7987 83.2 -105.4 83.6 -123.096 84 -141.926 84.4 -161.932 84.8 -183.156 85.2 -205.641 
    85.6 -229.43 86 -254.569 86.4 -281.102 86.8 -309.076 87.2 -338.539 87.6 -369.539 88 -402.125 88.4 -436.346 
    88.8 -472.255 89.2 -509.902 89.6 -549.341 90 -590.625 90.4 -633.809 90.8 -678.949 91.2 -726.102 91.6 -775.324 
    92 -826.675 92.4 -880.215 92.8 -936.003 93.2 -994.101 93.6 -1054.57 94 -1117.48 94.4 -1182.89 94.8 -1250.87 
    95.2 -1321.48 95.6 -1394.79 96 -1470.87 96.4 -1549.8 96.8 -1631.63 97.2 -1716.45 97.6 -1804.32 98 -1895.33 
    98.4 -1989.54 98.8 -2087.04 99.2 -2187.89 99.6 -2292.19 100 -2400 "
    stroke="#000080" stroke-width="0.5" fill="none"/>
</svg>
