<!DOCTYPE html>
<svg xmlns="http://www.w3.org/2000/svg" viewBox="-100 -100 200 200">
  <line x1="-100" y1="0" x2="100" y2="0"
    stroke="#000000" stroke-width="0.4"/>
  <line x1="0" y1="-100" x2="0" y2="100"
    stroke="#000000" stroke-width="0.4"/>
  <path d="M99 1.5 100 0 99 -1.5 "
    stroke="#000000" stroke-width="0.4" fill="none"/>
  <path d="M1.5 -99 0 -100 -1.5 -99 "
    stroke="#000000" stroke-width="0.4" fill="none"/>
  <path d="M-100 -800 -99.6 -793.619 -99.2 -787.277 -98.8 -780.972 -98.4 -774.706 -98 -768.477 -97.6 -762.286 -97.2 -756.132 
    -96.8 -750.016 -96.4 -743.937 -96 -737.895 -95.6 -731.889 -95.2 -725.921 -94.8 -719.989 -94.4 -714.093 -94 -708.234 
    -93.6 -702.411 -93.2 -696.624 -92.8 -690.873 -92.4 -685.157 -92 -679.477 -91.6 -673.833 -91.2 -668.223 -90.8 -662.649 
    -90.4 -657.11 -90 -651.605 -89.6 -646.135 -89.2 -640.7 -88.8 -635.299 -88.4 -629.932 -88 -624.599 -87.6 -619.3 
    -87.2 -614.035 -86.8 -608.804 -86.4 -603.606 -86 -598.442 -85.6 -593.31 -85.2 -588.212 -84.8 -583.147 -84.4 -578.114 
    -84 -573.114 -83.6 -568.147 -83.2 -563.212 -82.8 -558.309 -82.4 -553.438 -82 -548.6 -81.6 -543.793 -81.2 -539.017 
    -80.8 -534.274 -80.4 -529.561 -80 -524.88 -79.6 -520.23 -79.2 -515.611 -78.8 -511.023 -78.4 -506.465 -78 -501.938 
    -77.6 -497.441 -77.2 -492.975 -76.8 -488.539 -76.4 -484.133 -76 -479.756 -75.6 -475.41 -75.2 -471.093 -74.8 -466.805 
    -74.4 -462.547 -74 -458.318 -73.6 -454.118 -73.2 -449.947 -72.8 -445.805 -72.4 -441.692 -72 -437.607 -71.6 -433.55 
    -71.2 -429.522 -70.8 -425.521 -70.4 -421.549 -70 -417.605 -69.6 -413.688 -69.2 -409.8 -68.8 -405.938 -68.4 -402.104 
    -68 -398.297 -67.6 -394.517 -67.2 -390.764 -66.8 -387.039 -66.4 -383.339 -66 -379.667 -65.6 -376.02 -65.2 -372.4 
    -64.8 -368.807 -64.4 -365.239 -64 -361.697 -63.6 -358.182 -63.2 -354.691 -62.8 -351.227 -62.4 -347.788 -62 -344.374 
    -61.6 -340.985 -61.2 -337.622 -60.8 -334.283 -60.4 -330.969 -60 -327.68 -59.6 -324.415 -59.2 -321.175 -58.8 -317.96 
    -58.4 -314.768 -58 -311.601 -57.6 -308.457 -57.2 -305.338 -56.8 -302.242 -56.4 -299.169 -56 -296.12 -55.6 -293.095 
    -55.2 -290.093 -54.8 -287.114 -54.4 -284.158 -54 -281.224 -53.6 -278.314 -53.2 -275.426 -52.8 -272.561 -52.4 -269.718 
    -52 -266.897 -51.6 -264.099 -51.2 -261.323 -50.8 -258.568 -50.4 -255.836 -50 -253.125 -49.6 -250.436 -49.2 -247.768 
    -48.8 -245.122 -48.4 -242.497 -48 -239.893 -47.6 -237.31 -47.2 -234.748 -46.8 -232.206 -46.4 -229.686 -46 -227.186 
    -45.6 -224.706 -45.2 -222.247 -44.8 -219.808 -44.4 -217.39 -44 -214.991 -43.6 -212.612 -43.2 -210.253 -42.8 -207.914 
    -42.4 -205.594 -42 -203.293 -41.6 -201.012 -41.2 -198.751 -40.8 -196.508 -40.4 -194.285 -40 -192.08 -39.6 -189.894 
    -39.2 -187.727 -38.8 -185.579 -38.4 -183.449 -38 -181.337 -37.6 -179.244 -37.2 -177.168 -36.8 -175.111 -36.4 -173.072 
    -36 -171.051 -35.6 -169.048 -35.2 -167.062 -34.8 -165.093 -34.4 -163.142 -34 -161.209 -33.6 -159.293 -33.2 -157.394 
    -32.8 -155.511 -32.4 -153.646 -32 -151.798 -31.6 -149.966 -31.2 -148.151 -30.8 -146.353 -30.4 -144.571 -30 -142.805 
    -29.6 -141.055 -29.2 -139.322 -28.8 -137.605 -28.4 -135.903 -28 -134.218 -27.6 -132.548 -27.2 -130.894 -26.8 -129.255 
    -26.4 -127.632 -26 -126.024 -25.6 -124.431 -25.2 -122.853 -24.8 -121.291 -24.4 -119.743 -24 -118.211 -23.6 -116.693 
    -23.2 -115.189 -22.8 -113.701 -22.4 -112.227 -22 -110.767 -21.6 -109.321 -21.2 -107.89 -20.8 -106.473 -20.4 -105.069 
    -20 -103.68 -19.6 -102.304 -19.2 -100.943 -18.8 -99.5946 -18.4 -98.26 -18 -96.9389 -17.6 -95.6311 -17.2 -94.3367 
    -16.8 -93.0554 -16.4 -91.7872 -16 -90.532 -15.6 -89.2897 -15.2 -88.0603 -14.8 -86.8435 -14.4 -85.6395 -14 -84.448 
    -13.6 -83.269 -13.2 -82.1024 -12.8 -80.9481 -12.4 -79.8059 -12 -78.676 -11.6 -77.558 -11.2 -76.4521 -10.8 -75.3579 
    -10.4 -74.2756 -10 -73.205 -9.6 -72.146 -9.2 -71.0985 -8.8 -70.0625 -8.4 -69.0378 -8 -68.0244 -7.6 -67.0223 
    -7.2 -66.0312 -6.8 -65.0512 -6.4 -64.0821 -6 -63.1238 -5.6 -62.1764 -5.2 -61.2397 -4.8 -60.3136 -4.4 -59.398 
    -4 -58.4929 -3.6 -57.5982 -3.2 -56.7138 -2.8 -55.8396 -2.4 -54.9756 -2 -54.1216 -1.6 -53.2776 -1.2 -52.4435 
    -0.8 -51.6193 -0.4 -50.8048 -3.60684e-13 -50 0.4 -49.2048 0.8 -48.4191 1.2 -47.6429 1.6 -46.876 2 -46.1184 
    2.4 -45.3701 2.8 -44.6308 3.2 -43.9007 3.6 -43.1796 4 -42.4673 4.4 -41.764 4.8 -41.0693 5.2 -40.3834 
    5.6 -39.7062 6 -39.0374 6.4 -38.3772 6.8 -37.7254 7.2 -37.0819 7.6 -36.4467 8 -35.8196 8.4 -35.2007 
    8.8 -34.5899 9.2 -33.987 9.6 -33.3921 10 -32.805 10.4 -32.2257 10.8 -31.6541 11.2 -31.0901 11.6 -30.5337 
    12 -29.9848 12.4 -29.4433 12.8 -28.9092 13.2 -28.3824 13.6 -27.8628 14 -27.3504 14.4 -26.8451 14.8 -26.3468 
    15.2 -25.8555 15.6 -25.3711 16 -24.8936 16.4 -24.4228 16.8 -23.9587 17.2 -23.5013 17.6 -23.0504 18 -22.6061 
    18.4 -22.1682 18.8 -21.7367 19.2 -21.3116 19.6 -20.8927 20 -20.48 20.4 -20.0735 20.8 -19.673 21.2 -19.2786 
    21.6 -18.8901 22 -18.5075 22.4 -18.1308 22.8 -17.7598 23.2 -17.3946 23.6 -17.0351 24 -16.6811 24.4 -16.3327 
    24.8 -15.9897 25.2 -15.6522 25.6 -15.3201 26 -14.9933 26.4 -14.6717 26.8 -14.3554 27.2 -14.0442 27.6 -13.738 
    28 -13.4369 28.4 -13.1408 28.8 -12.8496 29.2 -12.5633 29.6 -12.2818 30 -12.005 30.4 -11.7329 30.8 -11.4655 
    31.2 -11.2027 31.6 -10.9445 32 -10.6907 32.4 -10.4414 32.8 -10.1964 33.2 -9.95579 33.6 -9.71946 34 -9.48737 
    34.4 -9.25945 34.8 -9.03567 35.2 -8.81597 35.6 -8.6003 36 -8.38861 36.4 -8.18085 36.8 -7.97698 37.2 -7.77694 
    37.6 -7.58068 38 -7.38817 38.4 -7.19934 38.8 -7.01416 39.2 -6.83257 39.6 -6.65454 40 -6.48 40.4 -6.30892 
    40.8 -6.14125 41.2 -5.97695 41.6 -5.81596 42 -5.65825 42.4 -5.50377 42.8 -5.35247 43.2 -5.20431 43.6 -5.05925 
    44 -4.91725 44.4 -4.77825 44.8 -4.64223 45.2 -4.50912 45.6 -4.37891 46 -4.25153 46.4 -4.12695 46.8 -4.00513 
    47.2 -3.88603 47.6 -3.7696 48 -3.65581 48.4 -3.54461 48.8 -3.43597 49.2 -3.32985 49.6 -3.22621 50 -3.125 
    50.4 -3.02619 50.8 -2.92975 51.2 -2.83563 51.6 -2.74379 52 -2.65421 52.4 -2.56683 52.8 -2.48164 53.2 -2.39858 
    53.6 -2.31762 54 -2.23873 54.4 -2.16187 54.8 -2.08701 55.2 -2.0141 55.6 -1.94313 56 -1.87405 56.4 -1.80682 
    56.8 -1.74143 57.2 -1.67782 57.6 -1.61597 58 -1.55585 58.4 -1.49742 58.8 -1.44065 59.2 -1.38551 59.6 -1.33197 
    60 -1.28 60.4 -1.22956 60.8 -1.18063 61.2 -1.13317 61.6 -1.08716 62 -1.04257 62.4 -0.999359 62.8 -0.957507 
    63.2 -0.916983 63.6 -0.87776 64 -0.839808 64.4 -0.803101 64.8 -0.76761 65.2 -0.733309 65.6 -0.70017 66 -0.668168 
    66.4 -0.637275 66.8 -0.607467 67.2 -0.578716 67.6 -0.550998 68 -0.524288 68.4 -0.498561 68.8 -0.473793 69.2 -0.449959 
    69.6 -0.427036 70 -0.405 70.4 -0.383828 70.8 -0.363497 71.2 -0.343985 71.6 -0.32527 72 -0.307328 72.4 -0.290139 
    72.8 -0.273682 73.2 -0.257934 73.6 -0.242877 74 -0.228488 74.4 -0.214748 74.8 -0.201638 75.2 -0.189137 75.6 -0.177227 
    76 -0.165888 76.4 -0.155102 76.8 -0.144851 77.2 -0.135117 77.6 -0.125882 78 -0.117128 78.4 -0.108839 78.8 -0.100998 
    79.2 -0.0935887 79.6 -0.0865946 80 -0.08 80.4 -0.0737895 80.8 -0.0679477 81.2 -0.0624599 81.6 -0.0573114 82 -0.052488 
    82.4 -0.0479756 82.8 -0.0437607 83.2 -0.0398297 83.6 -0.0361697 84 -0.032768 84.4 -0.029612 84.8 -0.0266897 85.2 -0.0239893 
    85.6 -0.0214991 86 -0.019208 86.4 -0.0171051 86.8 -0.0151798 87.2 -0.0134218 87.6 -0.0118211 88 -0.010368 88.4 -0.0090532 
    88.8 -0.0078676 89.2 -0.00680244 89.6 -0.00584929 90 -0.005 90.4 -0.00424673 90.8 -0.00358196 91.2 -0.00299848 91.6 -0.00248936 
    92 -0.002048 92.4 -0.00166811 92.8 -0.00134369 93.2 -0.00106907 93.6 -0.000838861 94 -0.000648 94.4 -0.000491725 94.8 -0.000365581 
    95.2 -0.000265421 95.6 -0.000187405 96 -0.000128 96.4 -8.39808e-05 96.8 -5.24288e-05 97.2 -3.07328e-05 97.6 -1.65888e-05 98 -8e-06 
    98.4 -3.2768e-06 98.8 -1.0368e-06 99.2 -2.048e-07 99.6 -1.28e-08 100 -1.40678e-55 "
    stroke="#000000" stroke-width="0.5" fill="none"/>
  <path d="M-100 1600 -99.6 1584.06 -99.2 1568.23 -98.8 1552.52 -98.4 1536.92 -98 1521.43 -97.6 1506.05 -97.2 1490.79 
    -96.8 1475.64 -96.4 1460.6 -96 1445.67 -95.6 1430.85 -95.2 1416.14 -94.8 1401.54 -94.4 1387.05 -94 1372.66 
    -93.6 1358.38 -93.2 1344.21 -92.8 1330.15 -92.4 1316.19 -92 1302.33 -91.6 1288.58 -91.2 1274.94 -90.8 1261.39 
    -90.4 1247.96 -90 1234.62 -89.6 1221.39 -89.2 1208.25 -88.8 1195.22 -88.4 1182.29 -88 1169.46 -87.6 1156.73 
    -87.2 1144.1 -86.8 1131.57 -86.4 1119.13 -86 1106.8 -85.6 1094.56 -85.2 1082.41 -84.8 1070.36 -84.4 1058.41 
    -84 1046.56 -83.6 1034.79 -83.2 1023.13 -82.8 1011.55 -82.4 1000.07 -82 988.685 -81.6 977.39 -81.2 966.186 
    -80.8 955.073 -80.4 944.051 -80 933.12 -79.6 922.278 -79.2 911.526 -78.8 900.863 -78.4 890.288 -78 879.801 
    -77.6 869.402 -77.2 859.09 -76.8 848.864 -76.4 838.724 -76 828.67 -75.6 818.701 -75.2 808.817 -74.8 799.017 
    -74.4 789.3 -74 779.668 -73.6 770.117 -73.2 760.65 -72.8 751.264 -72.4 741.96 -72 732.737 -71.6 723.594 
    -71.2 714.531 -70.8 705.548 -70.4 696.645 -70 687.82 -69.6 679.073 -69.2 670.405 -68.8 661.814 -68.4 653.3 
    -68 644.862 -67.6 636.5 -67.2 628.215 -66.8 620.004 -66.4 611.868 -66 603.807 -65.6 595.82 -65.2 587.906 
    -64.8 580.065 -64.4 572.297 -64 564.601 -63.6 556.977 -63.2 549.424 -62.8 541.942 -62.4 534.531 -62 527.189 
    -61.6 519.918 -61.2 512.716 -60.8 505.582 -60.4 498.517 -60 491.52 -59.6 484.591 -59.2 477.728 -58.8 470.933 
    -58.4 464.203 -58 457.54 -57.6 450.942 -57.2 444.41 -56.8 437.942 -56.4 431.538 -56 425.199 -55.6 418.922 
    -55.2 412.709 -54.8 406.559 -54.4 400.471 -54 394.445 -53.6 388.48 -53.2 382.576 -52.8 376.733 -52.4 370.951 
    -52 365.228 -51.6 359.565 -51.2 353.961 -50.8 348.416 -50.4 342.929 -50 337.5 -49.6 332.129 -49.2 326.815 
    -48.8 321.557 -48.4 316.357 -48 311.212 -47.6 306.123 -47.2 301.089 -46.8 296.111 -46.4 291.186 -46 286.317 
    -45.6 281.5 -45.2 276.738 -44.8 272.028 -44.4 267.371 -44 262.767 -43.6 258.214 -43.2 253.713 -42.8 249.263 
    -42.4 244.864 -42 240.516 -41.6 236.218 -41.2 231.97 -40.8 227.771 -40.4 223.621 -40 219.52 -39.6 215.467 
    -39.2 211.463 -38.8 207.506 -38.4 203.596 -38 199.733 -37.6 195.917 -37.2 192.148 -36.8 188.424 -36.4 184.746 
    -36 181.113 -35.6 177.525 -35.2 173.981 -34.8 170.482 -34.4 167.027 -34 163.615 -33.6 160.247 -33.2 156.921 
    -32.8 153.638 -32.4 150.397 -32 147.198 -31.6 144.041 -31.2 140.924 -30.8 137.849 -30.4 134.814 -30 131.82 
    -29.6 128.866 -29.2 125.951 -28.8 123.075 -28.4 120.238 -28 117.441 -27.6 114.681 -27.2 111.959 -26.8 109.275 
    -26.4 106.629 -26 104.02 -25.6 101.447 -25.2 98.9108 -24.8 96.4107 -24.4 93.9466 -24 91.518 -23.6 89.1246 
    -23.2 86.7661 -22.8 84.4423 -22.4 82.1528 -22 79.8973 -21.6 77.6756 -21.2 75.4873 -20.8 73.3321 -20.4 71.2098 
    -20 69.12 -19.6 67.0625 -19.2 65.0369 -18.8 63.043 -18.4 61.0805 -18 59.1492 -17.6 57.2486 -17.2 55.3785 
    -16.8 53.5387 -16.4 51.7288 -16 49.9487 -15.6 48.1979 -15.2 46.4762 -14.8 44.7834 -14.4 43.1192 -14 41.4832 
    -13.6 39.8753 -13.2 38.2951 -12.8 36.7424 -12.4 35.2169 -12 33.7183 -11.6 32.2464 -11.2 30.8008 -10.8 29.3814 
    -10.4 27.9879 -10 26.62 -9.6 25.2774 -9.2 23.9599 -8.8 22.6673 -8.4 21.3992 -8 20.1554 -7.6 18.9357 
    -7.2 17.7397 -6.8 16.5673 -6.4 15.4182 -6 14.2922 -5.6 13.1889 -5.2 12.1082 -4.8 11.0498 -4.4 10.0135 
    -4 8.99891 -3.6 8.00593 -3.2 7.03427 -2.8 6.08369 -2.4 5.15396 -2 4.24483 -1.6 3.35607 -1.2 2.48744 
    -0.8 1.63871 -0.4 0.809638 -3.60684e-13 7.21367e-13 0.4 -0.790438 0.8 -1.56191 1.2 -2.31463 1.6 -3.04884 2 -3.76477 
    2.4 -4.46263 2.8 -5.14265 3.2 -5.80505 3.6 -6.45006 4 -7.07789 4.4 -7.68876 4.8 -8.28289 5.2 -8.8605 
    5.6 -9.4218 6 -9.96701 6.4 -10.4963 6.8 -11.01 7.2 -11.5082 7.6 -11.9911 8 -12.459 8.4 -12.9121 
    8.8 -13.3505 9.2 -13.7745 9.6 -14.1843 10 -14.58 10.4 -14.9619 10.8 -15.3302 11.2 -15.6851 11.6 -16.0267 
    12 -16.3553 12.4 -16.6711 12.8 -16.9742 13.2 -17.2649 13.6 -17.5433 14 -17.8096 14.4 -18.064 14.8 -18.3067 
    15.2 -18.5379 15.6 -18.7578 16 -18.9665 16.4 -19.1643 16.8 -19.3513 17.2 -19.5276 17.6 -19.6936 18 -19.8492 
    18.4 -19.9949 18.8 -20.1306 19.2 -20.2565 19.6 -20.373 20 -20.48 20.4 -20.5778 20.8 -20.6666 21.2 -20.7465 
    21.6 -20.8177 22 -20.8803 22.4 -20.9345 22.8 -20.9805 23.2 -21.0185 23.6 -21.0485 24 -21.0708 24.4 -21.0856 
    24.8 -21.0928 25.2 -21.0929 25.6 -21.0857 26 -21.0716 26.4 -21.0507 26.8 -21.0232 27.2 -20.9891 27.6 -20.9486 
    28 -20.9019 28.4 -20.8491 28.8 -20.7904 29.2 -20.7259 29.6 -20.6557 30 -20.58 30.4 -20.4989 30.8 -20.4126 
    31.2 -20.3212 31.6 -20.2249 32 -20.1236 32.4 -20.0177 32.8 -19.9073 33.2 -19.7924 33.6 -19.6731 34 -19.5497 
    34.4 -19.4223 34.8 -19.2909 35.2 -19.1557 35.6 -19.0168 36 -18.8744 36.4 -18.7285 36.8 -18.5793 37.2 -18.4269 
    37.6 -18.2714 38 -18.1129 38.4 -17.9516 38.8 -17.7875 39.2 -17.6208 39.6 -17.4516 40 -17.28 40.4 -17.1061 
    40.8 -16.9299 41.2 -16.7517 41.6 -16.5715 42 -16.3894 42.4 -16.2055 42.8 -16.02 43.2 -15.8328 43.6 -15.6442 
    44 -15.4542 44.4 -15.2629 44.8 -15.0704 45.2 -14.8768 45.6 -14.6822 46 -14.4867 46.4 -14.2903 46.8 -14.0932 
    47.2 -13.8955 47.6 -13.6972 48 -13.4984 48.4 -13.2992 48.8 -13.0997 49.2 -12.8999 49.6 -12.7 50 -12.5 
    50.4 -12.3 50.8 -12.1001 51.2 -11.9003 51.6 -11.7008 52 -11.5016 52.4 -11.3027 52.8 -11.1043 53.2 -10.9063 
    53.6 -10.709 54 -10.5123 54.4 -10.3163 54.8 -10.1211 55.2 -9.92666 55.6 -9.73316 56 -9.54061 56.4 -9.34907 
    56.8 -9.15861 57.2 -8.96927 57.6 -8.78112 58 -8.59421 58.4 -8.40858 58.8 -8.2243 59.2 -8.04141 59.6 -7.85996 
    60 -7.68 60.4 -7.50158 60.8 -7.32473 61.2 -7.14952 61.6 -6.97597 62 -6.80413 62.4 -6.63404 62.8 -6.46574 
    63.2 -6.29927 63.6 -6.13467 64 -5.97197 64.4 -5.8112 64.8 -5.6524 65.2 -5.4956 65.6 -5.34084 66 -5.18813 
    66.4 -5.03751 66.8 -4.88901 67.2 -4.74265 67.6 -4.59845 68 -4.45645 68.4 -4.31666 68.8 -4.17909 69.2 -4.04379 
    69.6 -3.91075 70 -3.78 70.4 -3.65155 70.8 -3.52543 71.2 -3.40163 71.6 -3.28018 72 -3.16109 72.4 -3.04436 
    72.8 -2.93 73.2 -2.81803 73.6 -2.70844 74 -2.60125 74.4 -2.49645 74.8 -2.39405 75.2 -2.29405 75.6 -2.19645 
    76 -2.10125 76.4 -2.00844 76.8 -1.91803 77.2 -1.83 77.6 -1.74436 78 -1.66109 78.4 -1.58018 78.8 -1.50163 
    79.2 -1.42543 79.6 -1.35155 80 -1.28 80.4 -1.21075 80.8 -1.14379 81.2 -1.07909 81.6 -1.01666 82 -0.956448 
    82.4 -0.898453 82.8 -0.842647 83.2 -0.789008 83.6 -0.73751 84 -0.688128 84.4 -0.640835 84.8 -0.595603 85.2 -0.552401 
    85.6 -0.5112 86 -0.471968 86.4 -0.434671 86.8 -0.399274 87.2 -0.365743 87.6 -0.334041 88 -0.304128 88.4 -0.275966 
    88.8 -0.249515 89.2 -0.224733 89.6 -0.201576 90 -0.18 90.4 -0.15996 90.8 -0.14141 91.2 -0.1243 91.6 -0.108583 
    92 -0.094208 92.4 -0.0811228 92.8 -0.0692748 93.2 -0.0586101 93.6 -0.0490734 94 -0.040608 94.4 -0.0331563 94.8 -0.0266593 
    95.2 -0.0210567 95.6 -0.0162872 96 -0.012288 96.4 -0.00899528 96.8 -0.00634388 97.2 -0.00426747 97.6 -0.00269844 98 -0.001568 
    98.4 -0.000806093 98.8 -0.000341453 99.2 -0.000101581 99.6 -1.27488e-05 100 -7.72631e-41 "
    stroke="#003200" stroke-width="0.5" fill="none"/>
  <path d="M-100 -1200 -99.6 -1185.66 -99.2 -1171.45 -98.8 -1157.36 -98.4 -1143.39 -98 -1129.55 -97.6 -1115.82 -97.2 -1102.22 
    -96.8 -1088.73 -96.4 -1075.37 -96 -1062.13 -95.6 -1049 -95.2 -1035.99 -94.8 -1023.09 -94.4 -1010.32 -94 -997.655 
    -93.6 -985.108 -93.2 -972.674 -92.8 -960.354 -92.4 -948.146 -92 -936.051 -91.6 -924.066 -91.2 -912.193 -90.8 -900.429 
    -90.4 -888.775 -90 -877.23 -89.6 -865.793 -89.2 -854.463 -88.8 -843.24 -88.4 -832.123 -88 -821.112 -87.6 -810.205 
    -87.2 -799.403 -86.8 -788.705 -86.4 -778.109 -86 -767.616 -85.6 -757.225 -85.2 -746.934 -84.8 -736.744 -84.4 -726.655 
    -84 -716.664 -83.6 -706.772 -83.2 -696.978 -82.8 -687.281 -82.4 -677.681 -82 -668.177 -81.6 -658.769 -81.2 -649.456 
    -80.8 -640.237 -80.4 -631.112 -80 -622.08 -79.6 -613.141 -79.2 -604.293 -78.8 -595.537 -78.4 -586.872 -78 -578.296 
    -77.6 -569.811 -77.2 -561.414 -76.8 -553.106 -76.4 -544.885 -76 -536.752 -75.6 -528.706 -75.2 -520.745 -74.8 -512.87 
    -74.4 -505.08 -74 -497.374 -73.6 -489.752 -73.2 -482.213 -72.8 -474.757 -72.4 -467.383 -72 -460.09 -71.6 -452.879 
    -71.2 -445.747 -70.8 -438.696 -70.4 -431.724 -70 -424.83 -69.6 -418.015 -69.2 -411.277 -68.8 -404.616 -68.4 -398.032 
    -68 -391.523 -67.6 -385.09 -67.2 -378.732 -66.8 -372.449 -66.4 -366.239 -66 -360.102 -65.6 -354.038 -65.2 -348.046 
    -64.8 -342.126 -64.4 -336.277 -64 -330.498 -63.6 -324.79 -63.2 -319.151 -62.8 -313.581 -62.4 -308.079 -62 -302.646 
    -61.6 -297.28 -61.2 -291.981 -60.8 -286.748 -60.4 -281.581 -60 -276.48 -59.6 -271.444 -59.2 -266.472 -58.8 -261.563 
    -58.4 -256.719 -58 -251.937 -57.6 -247.217 -57.2 -242.56 -56.8 -237.963 -56.4 -233.428 -56 -228.953 -55.6 -224.538 
    -55.2 -220.183 -54.8 -215.886 -54.4 -211.648 -54 -207.468 -53.6 -203.345 -53.2 -199.279 -52.8 -195.27 -52.4 -191.317 
    -52 -187.42 -51.6 -183.577 -51.2 -179.79 -50.8 -176.056 -50.4 -172.376 -50 -168.75 -49.6 -165.176 -49.2 -161.655 
    -48.8 -158.186 -48.4 -154.768 -48 -151.4 -47.6 -148.084 -47.2 -144.817 -46.8 -141.601 -46.4 -138.433 -46 -135.314 
    -45.6 -132.243 -45.2 -129.22 -44.8 -126.245 -44.4 -123.317 -44 -120.435 -43.6 -117.599 -43.2 -114.809 -42.8 -112.064 
    -42.4 -109.364 -42 -106.708 -41.6 -104.096 -41.2 -101.528 -40.8 -99.0027 -40.4 -96.5202 -40 -94.08 -39.6 -91.6817 
    -39.2 -89.3248 -38.8 -87.0089 -38.4 -84.7336 -38 -82.4986 -37.6 -80.3034 -37.2 -78.1475 -36.8 -76.0307 -36.4 -73.9525 
    -36 -71.9124 -35.6 -69.9102 -35.2 -67.9454 -34.8 -66.0176 -34.4 -64.1264 -34 -62.2714 -33.6 -60.4523 -33.2 -58.6686 
    -32.8 -56.92 -32.4 -55.2061 -32 -53.5265 -31.6 -51.8809 -31.2 -50.2688 -30.8 -48.6898 -30.4 -47.1437 -30 -45.63 
    -29.6 -44.1484 -29.2 -42.6984 -28.8 -41.2798 -28.4 -39.8922 -28 -38.5352 -27.6 -37.2084 -27.2 -35.9115 -26.8 -34.6441 
    -26.4 -33.4059 -26 -32.1965 -25.6 -31.0156 -25.2 -29.8628 -24.8 -28.7378 -24.4 -27.6402 -24 -26.5697 -23.6 -25.526 
    -23.2 -24.5086 -22.8 -23.5173 -22.4 -22.5517 -22 -21.6116 -21.6 -20.6965 -21.2 -19.8061 -20.8 -18.9401 -20.4 -18.0982 
    -20 -17.28 -19.6 -16.4853 -19.2 -15.7136 -18.8 -14.9648 -18.4 -14.2384 -18 -13.5341 -17.6 -12.8517 -17.2 -12.1908 
    -16.8 -11.5512 -16.4 -10.9324 -16 -10.3342 -15.6 -9.75632 -15.2 -9.19842 -14.8 -8.66021 -14.4 -8.14138 -14 -7.64165 
    -13.6 -7.1607 -13.2 -6.69826 -12.8 -6.25402 -12.4 -5.8277 -12 -5.41901 -11.6 -5.02766 -11.2 -4.65336 -10.8 -4.29584 
    -10.4 -3.95481 -10 -3.63 -9.6 -3.32112 -9.2 -3.0279 -8.8 -2.75007 -8.4 -2.48736 -8 -2.23949 -7.6 -2.00619 
    -7.2 -1.78721 -6.8 -1.58227 -6.4 -1.39112 -6 -1.21349 -5.6 -1.04912 -5.2 -0.897758 -4.8 -0.759148 -4.4 -0.633035 
    -4 -0.519168 -3.6 -0.417297 -3.2 -0.327175 -2.8 -0.248556 -2.4 -0.181194 -2 -0.124848 -1.6 -0.0792773 -1.2 -0.044243 
    -0.8 -0.0195084 -0.4 -0.00483848 -3.60684e-13 -3.90278e-27 0.4 -0.00476168 0.8 -0.018894 1.2 -0.0421694 1.6 -0.0743621 2 -0.115248 
    2.4 -0.164605 2.8 -0.222213 3.2 -0.287854 3.6 -0.36131 4 -0.442368 4.4 -0.530814 4.8 -0.626437 5.2 -0.729029 
    5.6 -0.838381 6 -0.954288 6.4 -1.07655 6.8 -1.20496 7.2 -1.33931 7.6 -1.47942 8 -1.62509 8.4 -1.77611 
    8.8 -1.93231 9.2 -2.09348 9.6 -2.25944 10 -2.43 10.4 -2.60498 10.8 -2.78419 11.2 -2.96745 11.6 -3.15458 
    12 -3.34541 12.4 -3.53975 12.8 -3.73744 13.2 -3.9383 13.6 -4.14216 14 -4.34885 14.4 -4.5582 14.8 -4.77006 
    15.2 -4.98425 15.6 -5.20062 16 -5.41901 16.4 -5.63925 16.8 -5.8612 17.2 -6.0847 17.6 -6.30959 18 -6.53573 
    18.4 -6.76297 18.8 -6.99116 19.2 -7.22015 19.6 -7.44982 20 -7.68 20.4 -7.91057 20.8 -8.14138 21.2 -8.37231 
    21.6 -8.60322 22 -8.83397 22.4 -9.06443 22.8 -9.29449 23.2 -9.52401 23.6 -9.75286 24 -9.98093 24.4 -10.2081 
    24.8 -10.4342 25.2 -10.6592 25.6 -10.883 26 -11.1053 26.4 -11.3262 26.8 -11.5455 27.2 -11.7631 27.6 -11.9789 
    28 -12.1928 28.4 -12.4046 28.8 -12.6144 29.2 -12.8219 29.6 -13.0272 30 -13.23 30.4 -13.4303 30.8 -13.6281 
    31.2 -13.8232 31.6 -14.0155 32 -14.2049 32.4 -14.3915 32.8 -14.575 33.2 -14.7554 33.6 -14.9326 34 -15.1066 
    34.4 -15.2773 34.8 -15.4445 35.2 -15.6083 35.6 -15.7686 36 -15.9252 36.4 -16.0782 36.8 -16.2275 37.2 -16.3729 
    37.6 -16.5145 38 -16.6522 38.4 -16.7859 38.8 -16.9156 39.2 -17.0412 39.6 -17.1627 40 -17.28 40.4 -17.3931 
    40.8 -17.5019 41.2 -17.6064 41.6 -17.7065 42 -17.8023 42.4 -17.8936 42.8 -17.9805 43.2 -18.0628 43.6 -18.1406 
    44 -18.2139 44.4 -18.2826 44.8 -18.3466 45.2 -18.406 45.6 -18.4607 46 -18.5108 46.4 -18.5561 46.8 -18.5967 
    47.2 -18.6326 47.6 -18.6637 48 -18.69 48.4 -18.7116 48.8 -18.7284 49.2 -18.7404 49.6 -18.7476 50 -18.75 
    50.4 -18.7476 50.8 -18.7404 51.2 -18.7284 51.6 -18.7116 52 -18.69 52.4 -18.6637 52.8 -18.6326 53.2 -18.5967 
    53.6 -18.5561 54 -18.5108 54.4 -18.4607 54.8 -18.406 55.2 -18.3466 55.6 -18.2826 56 -18.2139 56.4 -18.1406 
    56.8 -18.0628 57.2 -17.9805 57.6 -17.8936 58 -17.8023 58.4 -17.7065 58.8 -17.6064 59.2 -17.5019 59.6 -17.3931 
    60 -17.28 60.4 -17.1627 60.8 -17.0412 61.2 -16.9156 61.6 -16.7859 62 -16.6522 62.4 -16.5145 62.8 -16.3729 
    63.2 -16.2275 63.6 -16.0782 64 -15.9252 64.4 -15.7686 64.8 -15.6083 65.2 -15.4445 65.6 -15.2773 66 -15.1066 
    66.4 -14.9326 66.8 -14.7554 67.2 -14.575 67.6 -14.3915 68 -14.2049 68.4 -14.0155 68.8 -13.8232 69.2 -13.6281 
    69.6 -13.4303 70 -13.23 70.4 -13.0272 70.8 -12.8219 71.2 -12.6144 71.6 -12.4046 72 -12.1928 72.4 -11.9789 
    72.8 -11.7631 73.2 -11.5455 73.6 -11.3262 74 -11.1053 74.4 -10.883 74.8 -10.6592 75.2 -10.4342 75.6 -10.2081 
    76 -9.98093 76.4 -9.75286 76.8 -9.52401 77.2 -9.29449 77.6 -9.06443 78 -8.83397 78.4 -8.60322 78.8 -8.37231 
    79.2 -8.14138 79.6 -7.91057 80 -7.68 80.4 -7.44982 80.8 -7.22015 81.2 -6.99116 81.6 -6.76297 82 -6.53573 
    82.4 -6.30959 82.8 -6.0847 83.2 -5.8612 83.6 -5.63925 84 -5.41901 84.4 -5.20062 84.8 -4.98425 85.2 -4.77006 
    85.6 -4.5582 86 -4.34885 86.4 -4.14216 86.8 -3.9383 87.2 -3.73744 87.6 -3.53975 88 -3.34541 88.4 -3.15458 
    88.8 -2.96745 89.2 -2.78419 89.6 -2.60498 90 -2.43 90.4 -2.25944 90.8 -2.09348 91.2 -1.93231 91.6 -1.77611 
    92 -1.62509 92.4 -1.47942 92.8 -1.33931 93.2 -1.20496 93.6 -1.07655 94 -0.954288 94.4 -0.838381 94.8 -0.729029 
    95.2 -0.626437 95.6 -0.530814 96 -0.442368 96.4 -0.36131 96.8 -0.287854 97.2 -0.222213 97.6 -0.164605 98 -0.115248 
    98.4 -0.0743621 98.8 -0.0421694 99.2 -0.018894 99.6 -0.00476168 100 -1.59129e-26 "
    stroke="#006400" stroke-width="0.5" fill="none"/>
  <path d="M-100 400 -99.6 394.429 -99.2 388.915 -98.8 383.457 -98.4 378.057 -98 372.712 -97.6 367.423 -97.2 362.189 
    -96.8 357.011 -96.4 351.886 -96 346.817 -95.6 341.8 -95.2 336.838 -94.8 331.928 -94.4 327.071 -94 322.267 
    -93.6 317.514 -93.2 312.813 -92.8 308.163 -92.4 303.564 -92 299.016 -91.6 294.518 -91.2 290.07 -90.8 285.671 
    -90.4 281.321 -90 277.02 -89.6 272.767 -89.2 268.563 -88.8 264.406 -88.4 260.296 -88 256.233 -87.6 252.217 
    -87.2 248.248 -86.8 244.324 -86.4 240.446 -86 236.613 -85.6 232.825 -85.2 229.081 -84.8 225.382 -84.4 221.727 
    -84 218.115 -83.6 214.547 -83.2 211.021 -82.8 207.538 -82.4 204.097 -82 200.698 -81.6 197.341 -81.2 194.024 
    -80.8 190.749 -80.4 187.514 -80 184.32 -79.6 181.166 -79.2 178.051 -78.8 174.975 -78.4 171.938 -78 168.941 
    -77.6 165.981 -77.2 163.059 -76.8 160.175 -76.4 157.329 -76 154.52 -75.6 151.747 -75.2 149.011 -74.8 146.311 
    -74.4 143.647 -74 141.018 -73.6 138.425 -73.2 135.866 -72.8 133.342 -72.4 130.853 -72 128.397 -71.6 125.976 
    -71.2 123.587 -70.8 121.232 -70.4 118.91 -70 116.62 -69.6 114.362 -69.2 112.137 -68.8 109.943 -68.4 107.781 
    -68 105.649 -67.6 103.549 -67.2 101.479 -66.8 99.4387 -66.4 97.4288 -66 95.4487 -65.6 93.4979 -65.2 91.5762 
    -64.8 89.6834 -64.4 87.8192 -64 85.9832 -63.6 84.1753 -63.2 82.3951 -62.8 80.6424 -62.4 78.9169 -62 77.2183 
    -61.6 75.5464 -61.2 73.9008 -60.8 72.2814 -60.4 70.6879 -60 69.12 -59.6 67.5774 -59.2 66.0599 -58.8 64.5673 
    -58.4 63.0992 -58 61.6554 -57.6 60.2357 -57.2 58.8397 -56.8 57.4673 -56.4 56.1182 -56 54.7922 -55.6 53.4889 
    -55.2 52.2082 -54.8 50.9498 -54.4 49.7135 -54 48.4989 -53.6 47.3059 -53.2 46.1343 -52.8 44.9837 -52.4 43.854 
    -52 42.7448 -51.6 41.6561 -51.2 40.5874 -50.8 39.5387 -50.4 38.5096 -50 37.5 -49.6 36.5096 -49.2 35.5381 
    -48.8 34.5854 -48.4 33.6512 -48 32.7352 -47.6 31.8374 -47.2 30.9574 -46.8 30.0949 -46.4 29.2499 -46 28.4221 
    -45.6 27.6112 -45.2 26.8171 -44.8 26.0395 -44.4 25.2782 -44 24.533 -43.6 23.8037 -43.2 23.09 -42.8 22.3918 
    -42.4 21.7089 -42 21.041 -41.6 20.3879 -41.2 19.7495 -40.8 19.1255 -40.4 18.5157 -40 17.92 -39.6 17.3381 
    -39.2 16.7698 -38.8 16.2149 -38.4 15.6733 -38 15.1447 -37.6 14.6289 -37.2 14.1258 -36.8 13.6351 -36.4 13.1567 
    -36 12.6904 -35.6 12.236 -35.2 11.7933 -34.8 11.3621 -34.4 10.9422 -34 10.5335 -33.6 10.1357 -33.2 9.74874 
    -32.8 9.37237 -32.4 9.00644 -32 8.65075 -31.6 8.30514 -31.2 7.96944 -30.8 7.64346 -30.4 7.32704 -30 7.02 
    -29.6 6.72218 -29.2 6.43341 -28.8 6.15352 -28.4 5.88234 -28 5.61971 -27.6 5.36547 -27.2 5.11946 -26.8 4.8815 
    -26.4 4.65146 -26 4.42915 -25.6 4.21444 -25.2 4.00715 -24.8 3.80715 -24.4 3.61426 -24 3.42835 -23.6 3.24926 
    -23.2 3.07684 -22.8 2.91094 -22.4 2.75141 -22 2.59811 -21.6 2.4509 -21.2 2.30962 -20.8 2.17414 -20.4 2.04431 
    -20 1.92 -19.6 1.80107 -19.2 1.68737 -18.8 1.57877 -18.4 1.47515 -18 1.37635 -17.6 1.28226 -17.2 1.19273 
    -16.8 1.10765 -16.4 1.02687 -16 0.950272 -15.6 0.877731 -15.2 0.809121 -14.8 0.744315 -14.4 0.683193 -14 0.625632 
    -13.6 0.571512 -13.2 0.520713 -12.8 0.473117 -12.4 0.428609 -12 0.387072 -11.6 0.348392 -11.2 0.312456 -10.8 0.279152 
    -10.4 0.24837 -10 0.22 -9.6 0.193934 -9.2 0.170065 -8.8 0.148288 -8.4 0.128498 -8 0.110592 -7.6 0.0944676 
    -7.2 0.0800244 -6.8 0.0671627 -6.4 0.0557842 -6 0.045792 -5.6 0.0370901 -5.2 0.0295839 -4.8 0.0231801 -4.4 0.0177864 
    -4 0.013312 -3.6 0.00966712 -3.2 0.00676332 -2.8 0.00451333 -2.4 0.00283116 -2 0.001632 -1.6 0.000832307 -1.2 0.000349747 
    -0.8 0.000103219 -0.4 1.28512e-05 -3.60684e-13 9.38447e-42 0.4 -1.27488e-05 0.8 -0.000101581 1.2 -0.000341453 1.6 -0.000806093 2 -0.001568 
    2.4 -0.00269844 2.8 -0.00426747 3.2 -0.00634388 3.6 -0.00899528 4 -0.012288 4.4 -0.0162872 4.8 -0.0210567 5.2 -0.0266593 
    5.6 -0.0331563 6 -0.040608 6.4 -0.0490734 6.8 -0.0586101 7.2 -0.0692748 7.6 -0.0811228 8 -0.094208 8.4 -0.108583 
    8.8 -0.1243 9.2 -0.14141 9.6 -0.15996 10 -0.18 10.4 -0.201576 10.8 -0.224733 11.2 -0.249515 11.6 -0.275966 
    12 -0.304128 12.4 -0.334041 12.8 -0.365743 13.2 -0.399274 13.6 -0.434671 14 -0.471968 14.4 -0.5112 14.8 -0.552401 
    15.2 -0.595603 15.6 -0.640835 16 -0.688128 16.4 -0.73751 16.8 -0.789008 17.2 -0.842647 17.6 -0.898453 18 -0.956448 
    18.4 -1.01666 18.8 -1.07909 19.2 -1.14379 19.6 -1.21075 20 -1.28 20.4 -1.35155 20.8 -1.42543 21.2 -1.50163 
    21.6 -1.58018 22 -1.66109 22.4 -1.74436 22.8 -1.83 23.2 -1.91803 23.6 -2.00844 24 -2.10125 24.4 -2.19645 
    24.8 -2.29405 25.2 -2.39405 25.6 -2.49645 26 -2.60125 26.4 -2.70844 26.8 -2.81803 27.2 -2.93 27.6 -3.04436 
    28 -3.16109 28.4 -3.28018 28.8 -3.40163 29.2 -3.52543 29.6 -3.65155 30 -3.78 30.4 -3.91075 30.8 -4.04379 
    31.2 -4.17909 31.6 -4.31666 32 -4.45645 32.4 -4.59845 32.8 -4.74265 33.2 -4.88901 33.6 -5.03751 34 -5.18813 
    34.4 -5.34084 34.8 -5.4956 35.2 -5.6524 35.6 -5.8112 36 -5.97197 36.4 -6.13467 36.8 -6.29927 37.2 -6.46574 
    37.6 -6.63404 38 -6.80413 38.4 -6.97597 38.8 -7.14952 39.2 -7.32473 39.6 -7.50158 40 -7.68 40.4 -7.85996 
    40.8 -8.04141 41.2 -8.2243 41.6 -8.40858 42 -8.59421 42.4 -8.78112 42.8 -8.96927 43.2 -9.15861 43.6 -9.34907 
    44 -9.54061 44.4 -9.73316 44.8 -9.92666 45.2 -10.1211 45.6 -10.3163 46 -10.5123 46.4 -10.709 46.8 -10.9063 
    47.2 -11.1043 47.6 -11.3027 48 -11.5016 48.4 -11.7008 48.8 -11.9003 49.2 -12.1001 49.6 -12.3 50 -12.5 
    50.4 -12.7 50.8 -12.8999 51.2 -13.0997 51.6 -13.2992 52 -13.4984 52.4 -13.6972 52.8 -13.8955 53.2 -14.0932 
    53.6 -14.2903 54 -14.4867 54.4 -14.6822 54.8 -14.8768 55.2 -15.0704 55.6 -15.2629 56 -15.4542 56.4 -15.6442 
    56.8 -15.8328 57.2 -16.02 57.6 -16.2055 58 -16.3894 58.4 -16.5715 58.8 -16.7517 59.2 -16.9299 59.6 -17.1061 
    60 -17.28 60.4 -17.4516 60.8 -17.6208 61.2 -17.7875 61.6 -17.9516 62 -18.1129 62.4 -18.2714 62.8 -18.4269 
    63.2 -18.5793 63.6 -18.7285 64 -18.8744 64.4 -19.0168 64.8 -19.1557 65.2 -19.2909 65.6 -19.4223 66 -19.5497 
    66.4 -19.6731 66.8 -19.7924 67.2 -19.9073 67.6 -20.0177 68 -20.1236 68.4 -20.2249 68.8 -20.3212 69.2 -20.4126 
    69.6 -20.4989 70 -20.58 70.4 -20.6557 70.8 -20.7259 71.2 -20.7904 71.6 -20.8491 72 -20.9019 72.4 -20.9486 
    72.8 -20.9891 73.2 -21.0232 73.6 -21.0507 74 -21.0716 74.4 -21.0857 74.8 -21.0929 75.2 -21.0928 75.6 -21.0856 
    76 -21.0708 76.4 -21.0485 76.8 -21.0185 77.2 -20.9805 77.6 -20.9345 78 -20.8803 78.4 -20.8177 78.8 -20.7465 
    79.2 -20.6666 79.6 -20.5778 80 -20.48 80.4 -20.373 80.8 -20.2565 81.2 -20.1306 81.6 -19.9949 82 -19.8492 
    82.4 -19.6936 82.8 -19.5276 83.2 -19.3513 83.6 -19.1643 84 -18.9665 84.4 -18.7578 84.8 -18.5379 85.2 -18.3067 
    85.6 -18.064 86 -17.8096 86.4 -17.5433 86.8 -17.2649 87.2 -16.9742 87.6 -16.6711 88 -16.3553 88.4 -16.0267 
    88.8 -15.6851 89.2 -15.3302 89.6 -14.9619 90 -14.58 90.4 -14.1843 90.8 -13.7745 91.2 -13.3505 91.6 -12.9121 
    92 -12.459 92.4 -11.9911 92.8 -11.5082 93.2 -11.01 93.6 -10.4963 94 -9.96701 94.4 -9.4218 94.8 -8.8605 
    95.2 -8.28289 95.6 -7.68876 96 -7.07789 96.4 -6.45006 96.8 -5.80505 97.2 -5.14265 97.6 -4.46263 98 -3.76477 
    98.4 -3.04884 98.8 -2.31463 99.2 -1.56191 99.6 -0.790438 100 -1.45661e-12 "
    stroke="#009600" stroke-width="0.5" fill="none"/>
  <path d="M-100 -50 -99.6 -49.2048 -99.2 -48.4191 -98.8 -47.6429 -98.4 -46.876 -98 -46.1184 -97.6 -45.3701 -97.2 -44.6308 
    -96.8 -43.9007 -96.4 -43.1796 -96 -42.4673 -95.6 -41.764 -95.2 -41.0693 -94.8 -40.3834 -94.4 -39.7062 -94 -39.0374 
    -93.6 -38.3772 -93.2 -37.7254 -92.8 -37.0819 -92.4 -36.4467 -92 -35.8196 -91.6 -35.2007 -91.2 -34.5899 -90.8 -33.987 
    -90.4 -33.3921 -90 -32.805 -89.6 -32.2257 -89.2 -31.6541 -88.8 -31.0901 -88.4 -30.5337 -88 -29.9848 -87.6 -29.4433 
    -87.2 -28.9092 -86.8 -28.3824 -86.4 -27.8628 -86 -27.3504 -85.6 -26.8451 -85.2 -26.3468 -84.8 -25.8555 -84.4 -25.3711 
    -84 -24.8936 -83.6 -24.4228 -83.2 -23.9587 -82.8 -23.5013 -82.4 -23.0504 -82 -22.6061 -81.6 -22.1682 -81.2 -21.7367 
    -80.8 -21.3116 -80.4 -20.8927 -80 -20.48 -79.6 -20.0735 -79.2 -19.673 -78.8 -19.2786 -78.4 -18.8901 -78 -18.5075 
    -77.6 -18.1308 -77.2 -17.7598 -76.8 -17.3946 -76.4 -17.0351 -76 -16.6811 -75.6 -16.3327 -75.2 -15.9897 -74.8 -15.6522 
    -74.4 -15.3201 -74 -14.9933 -73.6 -14.6717 -73.2 -14.3554 -72.8 -14.0442 -72.4 -13.738 -72 -13.4369 -71.6 -13.1408 
    -71.2 -12.8496 -70.8 -12.5633 -70.4 -12.2818 -70 -12.005 -69.6 -11.7329 -69.2 -11.4655 -68.8 -11.2027 -68.4 -10.9445 
    -68 -10.6907 -67.6 -10.4414 -67.2 -10.1964 -66.8 -9.95579 -66.4 -9.71946 -66 -9.48737 -65.6 -9.25945 -65.2 -9.03567 
    -64.8 -8.81597 -64.4 -8.6003 -64 -8.38861 -63.6 -8.18085 -63.2 -7.97698 -62.8 -7.77694 -62.4 -7.58068 -62 -7.38817 
    -61.6 -7.19934 -61.2 -7.01416 -60.8 -6.83257 -60.4 -6.65454 -60 -6.48 -59.6 -6.30892 -59.2 -6.14125 -58.8 -5.97695 
    -58.4 -5.81596 -58 -5.65825 -57.6 -5.50377 -57.2 -5.35247 -56.8 -5.20431 -56.4 -5.05925 -56 -4.91725 -55.6 -4.77825 
    -55.2 -4.64223 -54.8 -4.50912 -54.4 -4.37891 -54 -4.25153 -53.6 -4.12695 -53.2 -4.00513 -52.8 -3.88603 -52.4 -3.7696 
    -52 -3.65581 -51.6 -3.54461 -51.2 -3.43597 -50.8 -3.32985 -50.4 -3.22621 -50 -3.125 -49.6 -3.02619 -49.2 -2.92975 
    -48.8 -2.83563 -48.4 -2.74379 -48 -2.65421 -47.6 -2.56683 -47.2 -2.48164 -46.8 -2.39858 -46.4 -2.31762 -46 -2.23873 
    -45.6 -2.16187 -45.2 -2.08701 -44.8 -2.0141 -44.4 -1.94313 -44 -1.87405 -43.6 -1.80682 -43.2 -1.74143 -42.8 -1.67782 
    -42.4 -1.61597 -42 -1.55585 -41.6 -1.49742 -41.2 -1.44065 -40.8 -1.38551 -40.4 -1.33197 -40 -1.28 -39.6 -1.22956 
    -39.2 -1.18063 -38.8 -1.13317 -38.4 -1.08716 -38 -1.04257 -37.6 -0.999359 -37.2 -0.957507 -36.8 -0.916983 -36.4 -0.87776 
    -36 -0.839808 -35.6 -0.803101 -35.2 -0.76761 -34.8 -0.733309 -34.4 -0.70017 -34 -0.668168 -33.6 -0.637275 -33.2 -0.607467 
    -32.8 -0.578716 -32.4 -0.550998 -32 -0.524288 -31.6 -0.498561 -31.2 -0.473793 -30.8 -0.449959 -30.4 -0.427036 -30 -0.405 
    -29.6 -0.383828 -29.2 -0.363497 -28.8 -0.343985 -28.4 -0.32527 -28 -0.307328 -27.6 -0.290139 -27.2 -0.273682 -26.8 -0.257934 
    -26.4 -0.242877 -26 -0.228488 -25.6 -0.214748 -25.2 -0.201638 -24.8 -0.189137 -24.4 -0.177227 -24 -0.165888 -23.6 -0.155102 
    -23.2 -0.144851 -22.8 -0.135117 -22.4 -0.125882 -22 -0.117128 -21.6 -0.108839 -21.2 -0.100998 -20.8 -0.0935887 -20.4 -0.0865946 
    -20 -0.08 -19.6 -0.0737895 -19.2 -0.0679477 -18.8 -0.0624599 -18.4 -0.0573114 -18 -0.052488 -17.6 -0.0479756 -17.2 -0.0437607 
    -16.8 -0.0398297 -16.4 -0.0361697 -16 -0.032768 -15.6 -0.029612 -15.2 -0.0266897 -14.8 -0.0239893 -14.4 -0.0214991 -14 -0.019208 
    -13.6 -0.0171051 -13.2 -0.0151798 -12.8 -0.0134218 -12.4 -0.0118211 -12 -0.010368 -11.6 -0.0090532 -11.2 -0.0078676 -10.8 -0.00680244 
    -10.4 -0.00584929 -10 -0.005 -9.6 -0.00424673 -9.2 -0.00358196 -8.8 -0.00299848 -8.4 -0.00248936 -8 -0.002048 -7.6 -0.00166811 
    -7.2 -0.00134369 -6.8 -0.00106907 -6.4 -0.000838861 -6 -0.000648 -5.6 -0.000491725 -5.2 -0.000365581 -4.8 -0.000265421 -4.4 -0.000187405 
    -4 -0.000128 -3.6 -8.39808e-05 -3.2 -5.24288e-05 -2.8 -3.07328e-05 -2.4 -1.65888e-05 -2 -8e-06 -1.6 -3.2768e-06 -1.2 -1.0368e-06 
    -0.8 -2.048e-07 -0.4 -1.28e-08 -3.60684e-13 -8.46206e-57 0.4 -1.28e-08 0.8 -2.048e-07 1.2 -1.0368e-06 1.6 -3.2768e-06 2 -8e-06 
    2.4 -1.65888e-05 2.8 -3.07328e-05 3.2 -5.24288e-05 3.6 -8.39808e-05 4 -0.000128 4.4 -0.000187405 4.8 -0.000265421 5.2 -0.000365581 
    5.6 -0.000491725 6 -0.000648 6.4 -0.000838861 6.8 -0.00106907 7.2 -0.00134369 7.6 -0.00166811 8 -0.002048 8.4 -0.00248936 
    8.8 -0.00299848 9.2 -0.00358196 9.6 -0.00424673 10 -0.005 10.4 -0.00584929 10.8 -0.00680244 11.2 -0.0078676 11.6 -0.0090532 
    12 -0.010368 12.4 -0.0118211 12.8 -0.0134218 13.2 -0.0151798 13.6 -0.0171051 14 -0.019208 14.4 -0.0214991 14.8 -0.0239893 
    15.2 -0.0266897 15.6 -0.029612 16 -0.032768 16.4 -0.0361697 16.8 -0.0398297 17.2 -0.0437607 17.6 -0.0479756 18 -0.052488 
    18.4 -0.0573114 18.8 -0.0624599 19.2 -0.0679477 19.6 -0.0737895 20 -0.08 20.4 -0.0865946 20.8 -0.0935887 21.2 -0.100998 
    21.6 -0.108839 22 -0.117128 22.4 -0.125882 22.8 -0.135117 23.2 -0.144851 23.6 -0.155102 24 -0.165888 24.4 -0.177227 
    24.8 -0.189137 25.2 -0.201638 25.6 -0.214748 26 -0.228488 26.4 -0.242877 26.8 -0.257934 27.2 -0.273682 27.6 -0.290139 
    28 -0.307328 28.4 -0.32527 28.8 -0.343985 29.2 -0.363497 29.6 -0.383828 30 -0.405 30.4 -0.427036 30.8 -0.449959 
    31.2 -0.473793 31.6 -0.498561 32 -0.524288 32.4 -0.550998 32.8 -0.578716 33.2 -0.607467 33.6 -0.637275 34 -0.668168 
    34.4 -0.70017 34.8 -0.733309 35.2 -0.76761 35.6 -0.803101 36 -0.839808 36.4 -0.87776 36.8 -0.916983 37.2 -0.957507 
    37.6 -0.999359 38 -1.04257 38.4 -1.08716 38.8 -1.13317 39.2 -1.18063 39.6 -1.22956 40 -1.28 40.4 -1.33197 
    40.8 -1.38551 41.2 -1.44065 41.6 -1.49742 42 -1.55585 42.4 -1.61597 42.8 -1.67782 43.2 -1.74143 43.6 -1.80682 
    44 -1.87405 44.4 -1.94313 44.8 -2.0141 45.2 -2.08701 45.6 -2.16187 46 -2.23873 46.4 -2.31762 46.8 -2.39858 
    47.2 -2.48164 47.6 -2.56683 48 -2.65421 48.4 -2.74379 48.8 -2.83563 49.2 -2.92975 49.6 -3.02619 50 -3.125 
    50.4 -3.22621 50.8 -3.32985 51.2 -3.43597 51.6 -3.54461 52 -3.65581 52.4 -3.7696 52.8 -3.88603 53.2 -4.00513 
    53.6 -4.12695 54 -4.25153 54.4 -4.37891 54.8 -4.50912 55.2 -4.64223 55.6 -4.77825 56 -4.91725 56.4 -5.05925 
    56.8 -5.20431 57.2 -5.35247 57.6 -5.50377 58 -5.65825 58.4 -5.81596 58.8 -5.97695 59.2 -6.14125 59.6 -6.30892 
    60 -6.48 60.4 -6.65454 60.8 -6.83257 61.2 -7.01416 61.6 -7.19934 62 -7.38817 62.4 -7.58068 62.8 -7.77694 
    63.2 -7.97698 63.6 -8.18085 64 -8.38861 64.4 -8.6003 64.8 -8.81597 65.2 -9.03567 65.6 -9.25945 66 -9.48737 
    66.4 -9.71946 66.8 -9.95579 67.2 -10.1964 67.6 -10.4414 68 -10.6907 68.4 -10.9445 68.8 -11.2027 69.2 -11.4655 
    69.6 -11.7329 70 -12.005 70.4 -12.2818 70.8 -12.5633 71.2 -12.8496 71.6 -13.1408 72 -13.4369 72.4 -13.738 
    72.8 -14.0442 73.2 -14.3554 73.6 -14.6717 74 -14.9933 74.4 -15.3201 74.8 -15.6522 75.2 -15.9897 75.6 -16.3327 
    76 -16.6811 76.4 -17.0351 76.8 -17.3946 77.2 -17.7598 77.6 -18.1308 78 -18.5075 78.4 -18.8901 78.8 -19.2786 
    79.2 -19.673 79.6 -20.0735 80 -20.48 80.4 -20.8927 80.8 -21.3116 81.2 -21.7367 81.6 -22.1682 82 -22.6061 
    82.4 -23.0504 82.8 -23.5013 83.2 -23.9587 83.6 -24.4228 84 -24.8936 84.4 -25.3711 84.8 -25.8555 85.2 -26.3468 
    85.6 -26.8451 86 -27.3504 86.4 -27.8628 86.8 -28.3824 87.2 -28.9092 87.6 -29.4433 88 -29.9848 88.4 -30.5337 
    88.8 -31.0901 89.2 -31.6541 89.6 -32.2257 90 -32.805 90.4 -33.3921 90.8 -33.987 91.2 -34.5899 91.6 -35.2007 
    92 -35.8196 92.4 -36.4467 92.8 -37.0819 93.2 -37.7254 93.6 -38.3772 94 -39.0374 94.4 -39.7062 94.8 -40.3834 
    95.2 -41.0693 95.6 -41.764 96 -42.4673 96.4 -43.1796 96.8 -43.9007 97.2 -44.6308 97.6 -45.3701 98 -46.1184 
    98.4 -46.876 98.8 -47.6429 99.2 -48.4191 99.6 -49.2048 100 -50 "
    stroke="#00c800" stroke-width="0.5" fill="none"/>
</svg>
