<!DOCTYPE html>
<svg xmlns="http://www.w3.org/2000/svg" viewBox="-100 -100 200 200">
  <line x1="-100" y1="0" x2="100" y2="0"
    stroke="#000000" stroke-width="0.4"/>
  <line x1="0" y1="-100" x2="0" y2="100"
    stroke="#000000" stroke-width="0.4"/>
  <path d="M99 1.5 100 0 99 -1.5 "
    stroke="#000000" stroke-width="0.4" fill="none"/>
  <path d="M1.5 -99 0 -100 -1.5 -99 "
    stroke="#000000" stroke-width="0.4" fill="none"/>
  <path d="M-100 -5763.25 -99.6 -5613.28 -99.2 -5466.48 -98.8 -5322.79 -98.4 -5182.16 -98 -5044.55 -97.6 -4909.9 -97.2 -4778.16 
    -96.8 -4649.29 -96.4 -4523.24 -96 -4399.96 -95.6 -4279.39 -95.2 -4161.5 -94.8 -4046.24 -94.4 -3933.57 -94 -3823.43 
    -93.6 -3715.79 -93.2 -3610.59 -92.8 -3507.81 -92.4 -3407.39 -92 -3309.29 -91.6 -3213.47 -91.2 -3119.9 -90.8 -3028.52 
    -90.4 -2939.3 -90 -2852.21 -89.6 -2767.19 -89.2 -2684.22 -88.8 -2603.25 -88.4 -2524.25 -88 -2447.18 -87.6 -2372.01 
    -87.2 -2298.69 -86.8 -2227.2 -86.4 -2157.49 -86 -2089.54 -85.6 -2023.31 -85.2 -1958.77 -84.8 -1895.88 -84.4 -1834.61 
    -84 -1774.93 -83.6 -1716.81 -83.2 -1660.21 -82.8 -1605.11 -82.4 -1551.47 -82 -1499.27 -81.6 -1448.48 -81.2 -1399.06 
    -80.8 -1350.99 -80.4 -1304.24 -80 -1258.79 -79.6 -1214.6 -79.2 -1171.65 -78.8 -1129.91 -78.4 -1089.35 -78 -1049.96 
    -77.6 -1011.7 -77.2 -974.553 -76.8 -938.49 -76.4 -903.49 -76 -869.527 -75.6 -836.579 -75.2 -804.622 -74.8 -773.634 
    -74.4 -743.594 -74 -714.478 -73.6 -686.266 -73.2 -658.936 -72.8 -632.467 -72.4 -606.839 -72 -582.032 -71.6 -558.027 
    -71.2 -534.803 -70.8 -512.341 -70.4 -490.623 -70 -469.631 -69.6 -449.346 -69.2 -429.75 -68.8 -410.825 -68.4 -392.556 
    -68 -374.924 -67.6 -357.914 -67.2 -341.508 -66.8 -325.691 -66.4 -310.448 -66 -295.762 -65.6 -281.619 -65.2 -268.004 
    -64.8 -254.903 -64.4 -242.3 -64 -230.183 -63.6 -218.537 -63.2 -207.349 -62.8 -196.605 -62.4 -186.294 -62 -176.401 
    -61.6 -166.915 -61.2 -157.824 -60.8 -149.116 -60.4 -140.778 -60 -132.8 -59.6 -125.171 -59.2 -117.879 -58.8 -110.913 
    -58.4 -104.264 -58 -97.9208 -57.6 -91.8734 -57.2 -86.1121 -56.8 -80.6273 -56.4 -75.4097 -56 -70.4499 -55.6 -65.7392 
    -55.2 -61.2688 -54.8 -57.03 -54.4 -53.0145 -54 -49.2143 -53.6 -45.6213 -53.2 -42.2278 -52.8 -39.0262 -52.4 -36.0091 
    -52 -33.1693 -51.6 -30.4998 -51.2 -27.9938 -50.8 -25.6446 -50.4 -23.4457 -50 -21.3908 -49.6 -19.4738 -49.2 -17.6885 
    -48.8 -16.0294 -48.4 -14.4906 -48 -13.0666 -47.6 -11.7522 -47.2 -10.5421 -46.8 -9.43129 -46.4 -8.41486 -46 -7.48806 
    -45.6 -6.64628 -45.2 -5.88506 -44.8 -5.20007 -44.4 -4.58712 -44 -4.04214 -43.6 -3.5612 -43.2 -3.14051 -42.8 -2.77639 
    -42.4 -2.4653 -42 -2.2038 -41.6 -1.98859 -41.2 -1.81648 -40.8 -1.68439 -40.4 -1.58936 -40 -1.52854 -39.6 -1.49918 
    -39.2 -1.49866 -38.8 -1.52443 -38.4 -1.57408 -38 -1.64526 -37.6 -1.73574 -37.2 -1.8434 -36.8 -1.96618 -36.4 -2.10215 
    -36 -2.24943 -35.6 -2.40626 -35.2 -2.57095 -34.8 -2.7419 -34.4 -2.91758 -34 -3.09657 -33.6 -3.27748 -33.2 -3.45905 
    -32.8 -3.64006 -32.4 -3.81936 -32 -3.9959 -31.6 -4.16868 -31.2 -4.33675 -30.8 -4.49926 -30.4 -4.6554 -30 -4.80444 
    -29.6 -4.94569 -29.2 -5.07853 -28.8 -5.20239 -28.4 -5.31678 -28 -5.42122 -27.6 -5.51532 -27.2 -5.59871 -26.8 -5.67111 
    -26.4 -5.73224 -26 -5.7819 -25.6 -5.81991 -25.2 -5.84615 -24.8 -5.86054 -24.4 -5.86303 -24 -5.85361 -23.6 -5.83231 
    -23.2 -5.7992 -22.8 -5.75437 -22.4 -5.69796 -22 -5.63012 -21.6 -5.55105 -21.2 -5.46096 -20.8 -5.36011 -20.4 -5.24876 
    -20 -5.12721 -19.6 -4.99578 -19.2 -4.85482 -18.8 -4.70468 -18.4 -4.54575 -18 -4.37843 -17.6 -4.20313 -17.2 -4.02029 
    -16.8 -3.83036 -16.4 -3.63379 -16 -3.43106 -15.6 -3.22266 -15.2 -3.00908 -14.8 -2.79084 -14.4 -2.56843 -14 -2.34239 
    -13.6 -2.11324 -13.2 -1.88152 -12.8 -1.64776 -12.4 -1.4125 -12 -1.17628 -11.6 -0.939661 -11.2 -0.703177 -10.8 -0.467376 
    -10.4 -0.232802 -10 -2.10942e-13 -9.6 0.230491 -9.2 0.458133 -8.8 0.682394 -8.4 0.902745 -8 1.11866 -7.6 1.32964 
    -7.2 1.53515 -6.8 1.73471 -6.4 1.92781 -6 2.11398 -5.6 2.29274 -5.2 2.46363 -4.8 2.6262 -4.4 2.78 
    -4 2.9246 -3.6 3.0596 -3.2 3.18457 -2.8 3.29915 -2.4 3.40294 -2 3.49559 -1.6 3.57675 -1.2 3.64609 
    -0.8 3.7033 -0.4 3.74808 -3.60684e-13 3.78015 0.4 3.79923 0.8 3.80509 1.2 3.79749 1.6 3.77623 2 3.7411 
    2.4 3.69193 2.8 3.62858 3.2 3.55089 3.6 3.45875 4 3.35207 4.4 3.23076 4.8 3.09476 5.2 2.94404 
    5.6 2.77857 6 2.59836 6.4 2.40342 6.8 2.19381 7.2 1.96957 7.6 1.7308 8 1.47759 8.4 1.21006 
    8.8 0.928369 9.2 0.632668 9.6 0.323144 10 2.94764e-13 10.4 -0.336539 10.8 -0.68623 11.2 -1.04881 11.6 -1.42399 
    12 -1.81148 12.4 -2.21094 12.8 -2.62204 13.2 -3.04442 13.6 -3.47769 14 -3.92147 14.4 -4.37533 14.8 -4.83884 
    15.2 -5.31155 15.6 -5.79299 16 -6.28267 16.4 -6.7801 16.8 -7.28476 17.2 -7.79611 17.6 -8.3136 18 -8.83667 
    18.4 -9.36474 18.8 -9.89722 19.2 -10.4335 19.6 -10.973 20 -11.515 20.4 -12.0589 20.8 -12.6041 21.2 -13.1499 
    21.6 -13.6956 22 -14.2405 22.4 -14.784 22.8 -15.3253 23.2 -15.8637 23.6 -16.3985 24 -16.9291 24.4 -17.4546 
    24.8 -17.9743 25.2 -18.4875 25.6 -18.9934 26 -19.4914 26.4 -19.9807 26.8 -20.4604 27.2 -20.93 27.6 -21.3886 
    28 -21.8355 28.4 -22.2699 28.8 -22.6912 29.2 -23.0986 29.6 -23.4913 30 -23.8687 30.4 -24.2301 30.8 -24.5747 
    31.2 -24.9018 31.6 -25.2109 32 -25.5011 32.4 -25.7719 32.8 -26.0226 33.2 -26.2527 33.6 -26.4613 34 -26.6481 
    34.4 -26.8124 34.8 -26.9536 35.2 -27.0713 35.6 -27.1649 36 -27.2339 36.4 -27.2779 36.8 -27.2964 37.2 -27.2891 
    37.6 -27.2555 38 -27.1953 38.4 -27.1081 38.8 -26.9938 39.2 -26.852 39.6 -26.6825 40 -26.4852 40.4 -26.2599 
    40.8 -26.0066 41.2 -25.725 41.6 -25.4154 42 -25.0775 42.4 -24.7117 42.8 -24.3179 43.2 -23.8963 43.6 -23.4472 
    44 -22.9709 44.4 -22.4676 44.8 -21.9378 45.2 -21.3819 45.6 -20.8004 46 -20.1938 46.4 -19.5629 46.8 -18.9082 
    47.2 -18.2306 47.6 -17.5308 48 -16.8098 48.4 -16.0686 48.8 -15.308 49.2 -14.5294 49.6 -13.7338 50 -12.9225 
    50.4 -12.0969 50.8 -11.2585 51.2 -10.4086 51.6 -9.54903 52 -8.68135 52.4 -7.80737 52.8 -6.92898 53.2 -6.04814 
    53.6 -5.16692 54 -4.28748 54.4 -3.41209 54.8 -2.54312 55.2 -1.68305 55.6 -0.834442 56 -7.47735e-13 56.4 0.817477 
    56.8 1.61507 57.2 2.38976 57.6 3.13838 58 3.85767 58.4 4.54424 58.8 5.19457 59.2 5.80501 59.6 6.37179 
    60 6.89101 60.4 7.35861 60.8 7.77044 61.2 8.12216 61.6 8.40932 62 8.62733 62.4 8.77143 62.8 8.83672 
    63.2 8.81816 63.6 8.71055 64 8.50853 64.4 8.20658 64.8 7.79902 65.2 7.28001 65.6 6.64354 66 5.88344 
    66.4 4.99336 66.8 3.96676 67.2 2.79695 67.6 1.47706 68 1.03639e-12 68.4 -1.64146 68.8 -3.45476 69.2 -5.44753 
    69.6 -7.6276 70 -10.003 70.4 -12.5819 70.8 -15.3727 71.2 -18.3841 71.6 -21.6249 72 -25.1041 72.4 -28.8311 
    72.8 -32.8152 73.2 -37.0661 73.6 -41.5939 74 -46.4085 74.4 -51.5204 74.8 -56.9402 75.2 -62.6786 75.6 -68.7469 
    76 -75.1562 76.4 -81.9181 76.8 -89.0445 77.2 -96.5474 77.6 -104.439 78 -112.732 78.4 -121.439 78.8 -130.574 
    79.2 -140.149 79.6 -150.178 80 -160.675 80.4 -171.654 80.8 -183.131 81.2 -195.118 81.6 -207.632 82 -220.688 
    82.4 -234.301 82.8 -248.487 83.2 -263.262 83.6 -278.644 84 -294.648 84.4 -311.291 84.8 -328.592 85.2 -346.568 
    85.6 -365.236 86 -384.616 86.4 -404.726 86.8 -425.585 87.2 -447.212 87.6 -469.627 88 -492.85 88.4 -516.902 
    88.8 -541.803 89.2 -567.574 89.6 -594.236 90 -621.813 90.4 -650.325 90.8 -679.795 91.2 -710.246 91.6 -741.701 
    92 -774.185 92.4 -807.72 92.8 -842.332 93.2 -878.045 93.6 -914.884 94 -952.876 94.4 -992.045 94.8 -1032.42 
    95.2 -1074.02 95.6 -1116.89 96 -1161.04 96.4 -1206.5 96.8 -1253.31 97.2 -1301.48 97.6 -1351.06 98 -1402.07 
    98.4 -1454.54 98.8 -1508.5 99.2 -1563.99 99.6 -1621.02 100 -1679.65 "
    stroke="#000080" stroke-width="0.5" fill="none"/>
  <path d="M-100 -14659.4 -99.6 -14278 -99.2 -13904.6 -98.8 -13539.1 -98.4 -13181.4 -98 -12831.3 -97.6 -12488.8 -97.2 -12153.8 
    -96.8 -11826 -96.4 -11505.3 -96 -11191.7 -95.6 -10885.1 -95.2 -10585.2 -94.8 -10292 -94.4 -10005.4 -94 -9725.3 
    -93.6 -9451.5 -93.2 -9183.93 -92.8 -8922.48 -92.4 -8667.05 -92 -8417.53 -91.6 -8173.81 -91.2 -7935.79 -90.8 -7703.36 
    -90.4 -7476.43 -90 -7254.89 -89.6 -7038.64 -89.2 -6827.59 -88.8 -6621.64 -88.4 -6420.7 -88 -6224.66 -87.6 -6033.45 
    -87.2 -5846.96 -86.8 -5665.11 -86.4 -5487.81 -86 -5314.97 -85.6 -5146.51 -85.2 -4982.34 -84.8 -4822.37 -84.4 -4666.52 
    -84 -4514.72 -83.6 -4366.88 -83.2 -4222.92 -82.8 -4082.77 -82.4 -3946.34 -82 -3813.56 -81.6 -3684.36 -81.2 -3558.66 
    -80.8 -3436.39 -80.4 -3317.48 -80 -3201.86 -79.6 -3089.46 -79.2 -2980.21 -78.8 -2874.04 -78.4 -2770.88 -78 -2670.68 
    -77.6 -2573.37 -77.2 -2478.88 -76.8 -2387.15 -76.4 -2298.12 -76 -2211.73 -75.6 -2127.93 -75.2 -2046.64 -74.8 -1967.82 
    -74.4 -1891.41 -74 -1817.35 -73.6 -1745.59 -73.2 -1676.07 -72.8 -1608.75 -72.4 -1543.56 -72 -1480.46 -71.6 -1419.4 
    -71.2 -1360.33 -70.8 -1303.19 -70.4 -1247.95 -70 -1194.56 -69.6 -1142.96 -69.2 -1093.11 -68.8 -1044.98 -68.4 -998.507 
    -68 -953.659 -67.6 -910.391 -67.2 -868.662 -66.8 -828.43 -66.4 -789.657 -66 -752.302 -65.6 -716.328 -65.2 -681.697 
    -64.8 -648.372 -64.4 -616.316 -64 -585.494 -63.6 -555.871 -63.2 -527.413 -62.8 -500.086 -62.4 -473.857 -62 -448.695 
    -61.6 -424.567 -61.2 -401.443 -60.8 -379.292 -60.4 -358.085 -60 -337.792 -59.6 -318.385 -59.2 -299.837 -58.8 -282.12 
    -58.4 -265.207 -58 -249.072 -57.6 -233.69 -57.2 -219.035 -56.8 -205.084 -56.4 -191.812 -56 -179.197 -55.6 -167.215 
    -55.2 -155.844 -54.8 -145.062 -54.4 -134.848 -54 -125.182 -53.6 -116.043 -53.2 -107.411 -52.8 -99.2672 -52.4 -91.5929 
    -52 -84.3696 -51.6 -77.5795 -51.2 -71.2052 -50.8 -65.2298 -50.4 -59.6367 -50 -54.4098 -49.6 -49.5335 -49.2 -44.9927 
    -48.8 -40.7724 -48.4 -36.8583 -48 -33.2363 -47.6 -29.893 -47.2 -26.815 -46.8 -23.9895 -46.4 -21.4041 -46 -19.0467 
    -45.6 -16.9055 -45.2 -14.9693 -44.8 -13.2269 -44.4 -11.6678 -44 -10.2816 -43.6 -9.05829 -43.2 -7.98822 -42.8 -7.06205 
    -42.4 -6.27075 -42 -5.6056 -41.6 -5.05819 -41.2 -4.6204 -40.8 -4.28442 -40.4 -4.0427 -40 -3.888 -39.6 -3.81333 
    -39.2 -3.812 -38.8 -3.87756 -38.4 -4.00383 -38 -4.18488 -37.6 -4.41504 -37.2 -4.68888 -36.8 -5.00119 -36.4 -5.34703 
    -36 -5.72166 -35.6 -6.12058 -35.2 -6.53948 -34.8 -6.97431 -34.4 -7.42118 -34 -7.87644 -33.6 -8.33662 -33.2 -8.79846 
    -32.8 -9.25887 -32.4 -9.71495 -32 -10.164 -31.6 -10.6035 -31.2 -11.031 -30.8 -11.4443 -30.4 -11.8415 -30 -12.2206 
    -29.6 -12.5799 -29.2 -12.9178 -28.8 -13.2328 -28.4 -13.5238 -28 -13.7894 -27.6 -14.0288 -27.2 -14.2409 -26.8 -14.4251 
    -26.4 -14.5806 -26 -14.7069 -25.6 -14.8036 -25.2 -14.8703 -24.8 -14.9069 -24.4 -14.9132 -24 -14.8893 -23.6 -14.8351 
    -23.2 -14.7509 -22.8 -14.6369 -22.4 -14.4934 -22 -14.3208 -21.6 -14.1197 -21.2 -13.8905 -20.8 -13.634 -20.4 -13.3508 
    -20 -13.0416 -19.6 -12.7073 -19.2 -12.3488 -18.8 -11.9669 -18.4 -11.5626 -18 -11.137 -17.6 -10.6911 -17.2 -10.226 
    -16.8 -9.74291 -16.4 -9.24292 -16 -8.72726 -15.6 -8.19718 -15.2 -7.65392 -14.8 -7.09879 -14.4 -6.53308 -14 -5.95812 
    -13.6 -5.37526 -13.2 -4.78584 -12.8 -4.19124 -12.4 -3.59283 -12 -2.992 -11.6 -2.39013 -11.2 -1.7886 -10.8 -1.18882 
    -10.4 -0.592157 -10 -5.37348e-13 -9.6 0.586278 -9.2 1.16531 -8.8 1.73574 -8.4 2.29623 -8 2.84544 -7.6 3.38207 
    -7.2 3.90481 -6.8 4.41241 -6.4 4.90359 -6 5.37714 -5.6 5.83184 -5.2 6.26651 -4.8 6.68002 -4.4 7.07122 
    -4 7.43904 -3.6 7.78241 -3.2 8.1003 -2.8 8.39173 -2.4 8.65574 -2 8.8914 -1.6 9.09784 -1.2 9.27423 
    -0.8 9.41975 -0.4 9.53364 -3.60684e-13 9.6152 0.4 9.66374 0.8 9.67865 1.2 9.65932 1.6 9.60523 2 9.51588 
    2.4 9.39083 2.8 9.22967 3.2 9.03206 3.6 8.7977 4 8.52634 4.4 8.21777 4.8 7.87185 5.2 7.48847 
    5.6 7.06759 6 6.6092 6.4 6.11336 6.8 5.58018 7.2 5.00982 7.6 4.40247 8 3.7584 8.4 3.07792 
    8.8 2.36141 9.2 1.60926 9.6 0.82195 10 7.49401e-13 10.4 -0.856023 10.8 -1.7455 11.2 -2.66776 11.6 -3.62207 
    12 -4.60768 12.4 -5.62376 12.8 -6.66943 13.2 -7.74379 13.6 -8.84588 14 -9.97466 14.4 -11.1291 14.8 -12.3081 
    15.2 -13.5105 15.6 -14.7351 16 -15.9806 16.4 -17.2459 16.8 -18.5296 17.2 -19.8302 17.6 -21.1465 18 -22.477 
    18.4 -23.8202 18.8 -25.1746 19.2 -26.5387 19.6 -27.9109 20 -29.2896 20.4 -30.6731 20.8 -32.0599 21.2 -33.4481 
    21.6 -34.8362 22 -36.2222 22.4 -37.6046 22.8 -38.9815 23.2 -40.351 23.6 -41.7114 24 -43.0609 24.4 -44.3975 
    24.8 -45.7195 25.2 -47.0249 25.6 -48.3118 26 -49.5785 26.4 -50.8229 26.8 -52.0433 27.2 -53.2376 27.6 -54.4041 
    28 -55.5408 28.4 -56.6459 28.8 -57.7174 29.2 -58.7536 29.6 -59.7526 30 -60.7126 30.4 -61.6317 30.8 -62.5083 
    31.2 -63.3404 31.6 -64.1265 32 -64.8648 32.4 -65.5536 32.8 -66.1913 33.2 -66.7764 33.6 -67.3072 34 -67.7823 
    34.4 -68.2001 34.8 -68.5594 35.2 -68.8587 35.6 -69.0968 36 -69.2723 36.4 -69.3842 36.8 -69.4313 37.2 -69.4126 
    37.6 -69.3271 38 -69.174 38.4 -68.9524 38.8 -68.6616 39.2 -68.3009 39.6 -67.8699 40 -67.368 40.4 -66.7949 
    40.8 -66.1504 41.2 -65.4343 41.6 -64.6466 42 -63.7874 42.4 -62.8567 42.8 -61.8551 43.2 -60.7828 43.6 -59.6405 
    44 -58.4289 44.4 -57.1487 44.8 -55.8011 45.2 -54.3871 45.6 -52.908 46 -51.3652 46.4 -49.7603 46.8 -48.0951 
    47.2 -46.3715 47.6 -44.5916 48 -42.7576 48.4 -40.8721 48.8 -38.9376 49.2 -36.957 49.6 -34.9333 50 -32.8698 
    50.4 -30.7698 50.8 -28.6371 51.2 -26.4755 51.6 -24.289 52 -22.0819 52.4 -19.8589 52.8 -17.6246 53.2 -15.3841 
    53.6 -13.1426 54 -10.9057 54.4 -8.67902 54.8 -6.46871 55.2 -4.28101 55.6 -2.12249 56 -1.91402e-12 56.4 2.07934 
    56.8 4.10811 57.2 6.0786 57.6 7.9828 58 9.8124 58.4 11.5588 58.8 13.2129 59.2 14.7657 59.6 16.2073 
    60 17.528 60.4 18.7174 60.8 19.7649 61.2 20.6596 61.6 21.39 62 21.9445 62.4 22.311 62.8 22.4771 
    63.2 22.4299 63.6 22.1562 64 21.6423 64.4 20.8743 64.8 19.8376 65.2 18.5175 65.6 16.8986 66 14.9652 
    66.4 12.7011 66.8 10.0899 67.2 7.11435 67.6 3.75705 68 2.62679e-12 68.4 -4.17523 68.8 -8.78755 69.2 -13.8564 
    69.6 -19.4016 70 -25.4436 70.4 -32.0033 70.8 -39.1021 71.2 -46.7619 71.6 -55.0052 72 -63.855 72.4 -73.3349 
    72.8 -83.4689 73.2 -94.2816 73.6 -105.798 74 -118.045 74.4 -131.048 74.8 -144.833 75.2 -159.43 75.6 -174.865 
    76 -191.168 76.4 -208.367 76.8 -226.494 77.2 -245.578 77.6 -265.652 78 -286.746 78.4 -308.893 78.8 -332.128 
    79.2 -356.483 79.6 -381.993 80 -408.694 80.4 -436.621 80.8 -465.812 81.2 -496.304 81.6 -528.134 82 -561.343 
    82.4 -595.969 82.8 -632.053 83.2 -669.636 83.6 -708.76 84 -749.467 84.4 -791.802 84.8 -835.809 85.2 -881.532 
    85.6 -929.017 86 -978.312 86.4 -1029.46 86.8 -1082.52 87.2 -1137.53 87.6 -1194.55 88 -1253.62 88.4 -1314.79 
    88.8 -1378.13 89.2 -1443.68 89.6 -1511.5 90 -1581.65 90.4 -1654.17 90.8 -1729.13 91.2 -1806.58 91.6 -1886.6 
    92 -1969.22 92.4 -2054.52 92.8 -2142.56 93.2 -2233.4 93.6 -2327.1 94 -2423.74 94.4 -2523.37 94.8 -2626.07 
    95.2 -2731.89 95.6 -2840.92 96 -2953.22 96.4 -3068.86 96.8 -3187.92 97.2 -3310.46 97.6 -3436.57 98 -3566.32 
    98.4 -3699.78 98.8 -3837.04 99.2 -3978.17 99.6 -4123.25 100 -4272.36 "
    stroke="#fa8072" stroke-width="0.5" fill="none"/>
  <path d="M63.2813 100 79.6875 100 79.6875 -100 63.2813 -100 Z"
    stroke="#000000" stroke-width="0" fill="#00c800" fill-opacity="0.2"/>
  <line x1="63.2813" y1="-100" x2="63.2813" y2="100"
    stroke="#00c800" stroke-width="0.2"/>
  <line x1="79.6875" y1="-100" x2="79.6875" y2="100"
    stroke="#00c800" stroke-width="0.2"/>
  <path d="M46.875 100 63.2813 100 63.2813 -100 46.875 -100 Z"
    stroke="#000000" stroke-width="0" fill="#00c800" fill-opacity="0.2"/>
  <line x1="46.875" y1="-100" x2="46.875" y2="100"
    stroke="#00c800" stroke-width="0.2"/>
  <line x1="63.2813" y1="-100" x2="63.2813" y2="100"
    stroke="#00c800" stroke-width="0.2"/>
  <path d="M-2.34375 100 14.0625 100 14.0625 -100 -2.34375 -100 Z"
    stroke="#000000" stroke-width="0" fill="#00c800" fill-opacity="0.2"/>
  <line x1="-2.34375" y1="-100" x2="-2.34375" y2="100"
    stroke="#00c800" stroke-width="0.2"/>
  <line x1="14.0625" y1="-100" x2="14.0625" y2="100"
    stroke="#00c800" stroke-width="0.2"/>
  <path d="M-18.75 100 -2.34375 100 -2.34375 -100 -18.75 -100 Z"
    stroke="#000000" stroke-width="0" fill="#00c800" fill-opacity="0.2"/>
  <line x1="-18.75" y1="-100" x2="-18.75" y2="100"
    stroke="#00c800" stroke-width="0.2"/>
  <line x1="-2.34375" y1="-100" x2="-2.34375" y2="100"
    stroke="#00c800" stroke-width="0.2"/>
</svg>
